<?xml version="1.0" encoding="utf-8"?>
<!-- Generator: Adobe Illustrator 25.3.1, SVG Export Plug-In . SVG Version: 6.00 Build 0)  -->
<svg version="1.1" id="Layer_1" xmlns="http://www.w3.org/2000/svg" xmlns:xlink="http://www.w3.org/1999/xlink" x="0px" y="0px"
	 viewBox="0 0 300 300" style="enable-background:new 0 0 300 300;" xml:space="preserve">
<style type="text/css">
	.st0{fill:#BB6066;}
	.st1{fill:#792744;}
	.st2{fill:none;}
	.st3{fill:#9FDCEB;}
	.st4{fill:#7FBEE3;}
	.st5{fill:#ACF1F2;}
	.st6{fill:#81A5DA;}
	.st7{fill:#EB737F;}
	.st8{fill:none;stroke:#000000;stroke-miterlimit:10;}
	.st9{fill:#942321;}
	.st10{fill:#FFFFFF;}
	.st11{fill:#E8AEB3;}
	.st12{fill:#B14042;}
	.st13{fill:#E29697;}
</style>
<g>
	<g>
		<path class="st0" d="M260.92,125.48c0,3.19-21.4,36.34-34.87,37.98c0.49-3.48,0.78-7.08,0.78-10.89c2.21,1.23,7.04,0.08,7.04,0.08
			c-6.18-5.69-9.58-20.62-11.21-25.54c0,0,4.17-2.82,4.17-6.38l-6.59,0.16c0,0,2.54-2.91,2.74-6.55l-5.73,0.37
			c-2.62-4.87-5.69-9.45-9.21-13.75c-0.7-0.86-1.43-1.72-2.21-2.54v-0.04c2.13-10.31,11.25-18.05,22.18-18.05
			c12.52,0,22.67,10.15,22.67,22.67c0,6.1-2.13,14.98-5.77,22.47C244.92,125.48,260.92,122.29,260.92,125.48z"/>
		<path class="st0" d="M244.92,125.48c-1.96,4.05-4.34,7.73-7.08,10.31"/>
	</g>
	<g>
		<path class="st1" d="M258.96,129.78c-5.52,9.82-21.85,32.33-32.9,33.68c0.49-3.48,0.78-7.08,0.78-10.89
			c2.21,1.23,7.04,0.08,7.04,0.08c-1.84-1.72-3.44-4.26-4.87-7.08c0.98-0.65,1.68-1.72,1.68-2.95c1.51,1.23,2.13,3.36,1.51,5.16
			c5.85-1.47,10.97-5.97,10.31-11.99c1.51,1.72,1.88,2.17,2.58,4.42c2.82-3.48,3.89-6.63,3.97-11.09c1.39,2.29,3.36,2.01,6.06,1.68
			C256.42,130.68,257.69,130.14,258.96,129.78z"/>
	</g>
	<path class="st1" d="M235.75,123.39c-2.37,4.58-6.42,8.18-11.17,10.15c-0.82-2.7-1.43-4.99-1.92-6.42c0,0,4.17-2.82,4.17-6.38
		l-4.87,0.12c4.22-2.17,7.86-6.79,8.84-10.97c0,0.86,0.7,2.82,0.7,3.68c0,1.39-0.2,2.95-0.53,4.3c-0.78,3.4-2.7,6.67-5.07,9.17
		C229.49,128.26,233.83,126.67,235.75,123.39z"/>
	<g>
		<path class="st2" d="M76.16,127.89c-0.33,2.09-0.65,4.34-1.27,6.55c-5.77-1.64-10.93-5.69-13.67-11.05
			c1.96,3.27,6.3,4.87,9.9,3.64c-2.37-2.5-4.34-5.77-5.12-9.17c-0.29-1.35-0.53-2.91-0.49-4.3c0-0.86,0.7-2.82,0.7-3.68
			c1.06,4.54,5.28,9.53,9.86,11.46c-1.96,2.01-3.76,3.68-3.76,3.68C73.33,128.22,76.16,127.89,76.16,127.89z"/>
		<path class="st2" d="M70.18,152.57c0,3.76,0.29,7.41,0.78,10.89c-10.56-3.89-24.72-23.33-30.24-32.9c0.41,0.12,0.78,0.2,1.19,0.25
			c2.66,0.33,5.48-1.02,6.87-3.31c0.08,4.46,0.29,9.25,3.11,12.73c0.74-2.25,1.88-4.34,3.44-6.06c-0.65,6.02,3.64,12.15,9.49,13.63
			c-0.61-1.8,0-3.97,1.51-5.2c-0.08,2.41,2.66,4.21,5.03,3.85c0.57-0.08,1.15-0.29,1.68-0.53
			C72.31,146.72,70.18,149.38,70.18,152.57z"/>
		<path class="st0" d="M92.44,95.03v0.04c-3.85,4.42-7.45,9-9.53,12.73l-5.4,2.46c-0.12,3.6,3.36,5.24,3.36,5.24
			c-0.45,1.23-2.7,3.72-4.79,5.85c-4.58-1.92-8.8-6.92-9.86-11.46c0,0.86-0.7,2.82-0.7,3.68c-0.04,1.39,0.2,2.95,0.49,4.3
			c0.78,3.4,2.74,6.67,5.12,9.17c-3.6,1.23-7.94-0.37-9.9-3.64c2.74,5.36,7.9,9.41,13.67,11.05c-0.98,3.48-2.74,6.83-6.34,9.29
			l4.79,1.88c0,0-0.08,0.08-0.25,0.29c-0.04,0-0.04,0-0.04,0c-0.53,0.25-1.1,0.45-1.68,0.53c-2.37,0.37-5.12-1.43-5.03-3.85
			c-1.51,1.23-2.13,3.4-1.51,5.2c-5.85-1.47-10.15-7.61-9.49-13.63c-1.56,1.72-2.7,3.81-3.44,6.06c-2.82-3.48-3.03-8.27-3.11-12.73
			c-1.39,2.29-4.21,3.64-6.87,3.31c-0.41-0.04-0.78-0.12-1.19-0.25c-1.51-2.58-2.37-4.46-2.37-5.07c0-3.11,15.35-0.12,15.96,0
			c-3.64-7.49-5.77-16.37-5.77-22.47c0-12.52,10.15-22.67,22.67-22.67C80.94,80.34,89.17,86.48,92.44,95.03z"/>
		<path class="st0" d="M61.42,135.79c-2.74-2.58-5.16-6.26-7.08-10.31c0,0,0,0-0.04,0"/>
		<path class="st2" d="M54.34,125.48c0,0,0,0-0.04,0"/>
	</g>
	<g>
		<path class="st1" d="M76.16,127.89c-0.33,2.09-0.65,4.34-1.27,6.55c-5.77-1.64-10.93-5.69-13.67-11.05
			c1.96,3.27,6.3,4.87,9.9,3.64c-2.37-2.5-4.34-5.77-5.12-9.17c-0.29-1.35-0.53-2.91-0.49-4.3c0-0.86,0.7-2.82,0.7-3.68
			c1.06,4.54,5.28,9.53,9.86,11.46c-1.96,2.01-3.76,3.68-3.76,3.68C73.33,128.22,76.16,127.89,76.16,127.89z"/>
		<path class="st1" d="M70.18,152.57c0,3.76,0.29,7.41,0.78,10.89c-10.56-3.89-24.72-23.33-30.24-32.9c0.41,0.12,0.78,0.2,1.19,0.25
			c2.66,0.33,5.48-1.02,6.87-3.31c0.08,4.46,0.29,9.25,3.11,12.73c0.74-2.25,1.88-4.34,3.44-6.06c-0.65,6.02,3.64,12.15,9.49,13.63
			c-0.61-1.8,0-3.97,1.51-5.2c-0.08,2.41,2.66,4.21,5.03,3.85c0.57-0.08,1.15-0.29,1.68-0.53
			C72.31,146.72,70.18,149.38,70.18,152.57z"/>
		<path class="st0" d="M92.44,95.03v0.04c-3.85,4.42-7.45,9-9.53,12.73l-5.4,2.46c-0.12,3.6,3.36,5.24,3.36,5.24
			c-0.45,1.23-2.7,3.72-4.79,5.85c-4.58-1.92-8.8-6.92-9.86-11.46c0,0.86-0.7,2.82-0.7,3.68c-0.04,1.39,0.2,2.95,0.49,4.3
			c0.78,3.4,2.74,6.67,5.12,9.17c-3.6,1.23-7.94-0.37-9.9-3.64c2.74,5.36,7.9,9.41,13.67,11.05c-0.98,3.48-2.74,6.83-6.34,9.29
			l4.79,1.88c0,0-0.08,0.08-0.25,0.29c-0.04,0-0.04,0-0.04,0c-0.53,0.25-1.1,0.45-1.68,0.53c-2.37,0.37-5.12-1.43-5.03-3.85
			c-1.51,1.23-2.13,3.4-1.51,5.2c-5.85-1.47-10.15-7.61-9.49-13.63c-1.56,1.72-2.7,3.81-3.44,6.06c-2.82-3.48-3.03-8.27-3.11-12.73
			c-1.39,2.29-4.21,3.64-6.87,3.31c-0.41-0.04-0.78-0.12-1.19-0.25c-1.51-2.58-2.37-4.46-2.37-5.07c0-3.11,15.35-0.12,15.96,0
			c-3.64-7.49-5.77-16.37-5.77-22.47c0-12.52,10.15-22.67,22.67-22.67C80.94,80.34,89.17,86.48,92.44,95.03z"/>
		<path class="st0" d="M61.42,135.79c-2.74-2.58-5.16-6.26-7.08-10.31c0,0,0,0-0.04,0"/>
		<path class="st2" d="M54.34,125.48c0,0,0,0-0.04,0"/>
	</g>
	<path class="st3" d="M233.87,153.3c0,0-4.83,1.15-7.04-0.08c0,3.81-0.29,7.41-0.78,10.89c-0.94,6.26-2.7,11.99-5.2,17.19
		c-1.92,4.01-4.26,7.69-6.96,11.09c-0.57,0.7-1.15,1.39-1.76,2.05c0.37,1.1,0.82,2.21,1.31,3.27c0.04,0.08,0.08,0.12,0.12,0.2
		c-0.45,5.85-1.43,15.1-3.31,21.81c-0.61,0.08-1.23,0.08-1.84-0.12c-0.41-0.12-0.82-0.29-1.19-0.49c-0.04,0-0.08,0-0.12-0.04
		c-1.64-0.98-3.52-1.51-5.57-1.51c-5.4,0-9.9,3.89-10.84,9.04c-0.78,0.45-1.64,0.86-2.5,1.19c-3.68-1.43-6.47-4.79-6.79-12.15
		c0.41-0.74,0.74-1.47,0.94-2.25c-3.4,1.19-6.96,2.13-10.6,2.91c1.06-5.16,1.43-11.54,1.43-19.19c0-11.17-2.09-21.44-5.65-29.46
		c0,0,0,0,0-0.04c-1.72-0.49-3.31-0.98-4.5-1.31c-1.02-0.25-0.57,3.03-1.51,2.7c-6.79-2.41-13.01-9.62-13.01-9.62
		s-1.56,1.8-3.97,3.89c-2.41,2.13-5.69,4.54-9.04,5.73c-0.98,0.33-0.53-2.95-1.56-2.7c-1.19,0.33-2.78,0.82-4.5,1.31
		c0,0.04,0,0.04,0,0.04c-3.52,8.02-5.65,18.29-5.65,29.46c0,7.65,0.37,14.04,1.43,19.19c-3.11-0.65-6.14-1.43-9.08-2.41
		c-0.25-0.04-0.49-0.12-0.7-0.2c0.12,0.41,0.29,0.82,0.45,1.23c0.08,0.16,0.12,0.29,0.2,0.45v0.04c-0.45,7.78-3.72,11.13-7.86,12.48
		c-0.61-0.33-1.23-0.65-1.84-1.02c-0.9-5.28-5.44-9.29-10.93-9.29c-2.95,0-5.65,1.15-7.65,3.03c-0.29,0.04-0.53,0.12-0.78,0.12
		c-2.62-8.47-3.56-21.85-3.85-26.68v-0.04c0.25-0.2,0.49-0.41,0.74-0.61c-0.29-0.33-0.53-0.65-0.82-0.98
		c-6.22-7.73-10.48-17.19-12.15-28.28c-0.49-3.48-0.78-7.12-0.78-10.89c0-3.85,3.15-6.96,3.15-6.96l-4.79-1.88
		c5.89-4.05,6.83-10.44,7.61-15.84c0,0-2.82,0.33-3.85-2.86c0,0,7.69-7.16,8.55-9.53c0,0-3.48-1.64-3.36-5.24l5.4-2.46
		c2.09-3.72,5.69-8.31,9.53-12.73v-0.04c7.28-8.51,15.39-16.37,15.39-16.37c-0.57,5.93,1.47,7.69,1.47,7.69
		c7.65-7.53,23.69-16.98,35.27-19.23c0,0-0.65,3.23,3.93,9.33c0.2,0,0.9-6.88,4.54-9.74c0,0,10.35,15.1,17.64,17.8
		c0,0,1.23-8.06-0.25-12.32c0,0,18.87,10.56,28.2,18.91c2.54,2.29,4.95,4.71,7.2,7.28v0.04c0.78,0.82,1.51,1.68,2.21,2.54
		c3.52,4.3,6.59,8.88,9.21,13.75l5.73-0.37c-0.2,3.64-2.74,6.55-2.74,6.55l6.59-0.16c0,3.56-4.17,6.38-4.17,6.38
		C224.29,132.68,227.69,147.61,233.87,153.3z"/>
	<path class="st4" d="M76.97,110.25c0,0,5.23,2.72,7.65,2.11l-1.76,2.97L76.97,110.25z"/>
	<path class="st4" d="M222.89,144.64c0.38,3.8,0.9,3.16,3.16,6.25c0.29,0.4,0.03,1.2,0.48,1.41c0.85,0.4,4.55,1.66,5.11,0.72
		c0.57-0.95,0.43-0.22-0.25-0.74c-1.57-1.2-2.57-1.87-4.92-3.45C225.28,148.03,223.92,146.38,222.89,144.64z"/>
	<path class="st4" d="M221.38,115.72c0,0-6.03,5.38-8.98,5.73l3.41,1.48l4.21-2.95L221.38,115.72z"/>
	<path class="st4" d="M224.87,122.52c0,0-5.39,2.91-9.06,2.96l5.68,1.05L224.87,122.52z"/>
	<path class="st4" d="M76.92,124.94c-0.4,0.15-0.84,0.19-1.27,0.23c-0.54,0.05-1.08,0.09-1.62,0.14c0.7,0.53,2.46,2.03,3.39,1.53
		c0.68-0.36,1.33-1.36,1.59-2.71C77.88,124.7,77.61,124.68,76.92,124.94z"/>
	<path class="st5" d="M211.4,105.39c-4.62-2.95-1.21-0.12-5.35-3.72c-6.38-5.57-21.11-16.25-29.27-19.04
		c-2.24,2.84-4.99,3.9-4.99,3.9c-6.22-2.01-14.61-6.19-18.99-11.06c-0.97,1.49-1.6,1.17-3.88,2.67c-0.45-0.2-8.27-3.53-8.48-4.59
		c-5.89,1.92-11.83,6.1-17.02,9.49c-6.14,4.01-12.03,8.47-17.6,13.3c-1.02-2.09-2.09-4.17-3.15-6.26
		c-4.09,1.84-8.02,4.09-11.66,6.67c0.49-0.57,0.94-1.15,1.43-1.68v-0.04c7.28-8.51,15.39-16.37,15.39-16.37
		c-0.57,5.93,1.47,7.69,1.47,7.69c7.65-7.53,23.69-16.98,35.27-19.23c0,0-0.65,3.23,3.93,9.33c0.2,0,0.9-6.88,4.54-9.74
		c0,0,10.35,15.1,17.64,17.8c0,0,1.23-8.06-0.25-12.32c0,0,18.87,10.56,28.2,18.91c2.54,2.29,4.95,4.71,7.2,7.28v0.04
		c0.78,0.82,1.51,1.68,2.21,2.54C209.24,102.4,210.34,103.87,211.4,105.39z"/>
	<path class="st4" d="M74.01,142.87c-1.51,0.13-3.28,0.1-4.73,0c1.34,0.46,4,2.62,5.43,2.6c2.3-0.03,4.38-1.91,4.74-4.3
		C77.85,142.01,75.81,142.71,74.01,142.87z"/>
	<path class="st4" d="M79.64,163.91l2.87,0.23c-2.58,4.17-3.32,6.71-3.32,10.86l2.49-0.23c0,0-0.6,9.43,1.48,15.01
		c0.64,1.71,0.41,1.79,0.78,3.58c0.38,1.87-1.39-1.92-2.2-0.33c-0.74,1.43-0.44,2.83,0,4.31c2.16,7.22,4.31,14.45,6.47,21.67
		c0.16,0.53,0.32,1.06,0.64,1.5c0.6,0.82,1.62,1.18,2.59,1.49c2.63,0.84,5.29,1.59,7.97,2.27c3.63,0.92,7.84,1.6,10.84-0.65
		c1.53-1.15,2.49-2.88,3.39-4.57c0.57-1.06,1.14-2.12,1.72-3.18c0.26-0.48,0.55-0.99,1.03-1.25c0.39-0.21,0.85-0.23,1.29-0.24
		c2.5-0.07,5-0.13,7.5-0.2c1.22-1.22,0.51-3.44-0.88-4.46c-1.39-1.01-3.19-1.22-4.86-1.64c-4.58-1.14-8.67-4.13-11.13-8.16
		c-0.1,0.97-0.21,1.94-0.31,2.91c-2.99-0.91-5.46-3.08-7.31-5.6c-1.84-2.52-3.12-5.4-4.38-8.26c-0.86,0.59-1.27,1.76-0.96,2.76
		c-5.2-2.99-8.23-14.21-8.82-17.66c-0.24-1.38-0.99-3.41,0.21-6c0.4-0.86,0.98-1.62,1.3-2.52c0.69-1.96-0.03-4.3,0.99-6.11
		c0.49-0.88,1.33-1.5,2.2-2c1.37-0.79,3.61-1.76,5.11-2.22c-4.63,0.22-3.74,0.24-8.13,1.44C83.19,158.02,80.51,162.56,79.64,163.91z
		"/>
	<path class="st4" d="M217.36,163.91l-2.87,0.23c2.58,4.17,3.32,6.71,3.32,10.86l-2.49-0.23c0,0,0.6,9.43-1.48,15.01
		c-0.64,1.71-0.41,1.79-0.78,3.58c-0.38,1.87,1.39-1.92,2.2-0.33c0.74,1.43,0.44,2.83,0,4.31c-2.16,7.22-4.31,14.45-6.47,21.67
		c-0.16,0.53-0.32,1.06-0.64,1.5c-0.6,0.82-1.62,1.18-2.59,1.49c-2.63,0.84-5.29,1.59-7.97,2.27c-3.63,0.92-7.84,1.6-10.84-0.65
		c-1.53-1.15-2.49-2.88-3.39-4.57c-0.57-1.06-1.14-2.12-1.72-3.18c-0.26-0.48-0.55-0.99-1.03-1.25c-0.39-0.21-0.85-0.23-1.29-0.24
		c-2.5-0.07-5-0.13-7.5-0.2c-1.22-1.22-0.51-3.44,0.88-4.46c1.39-1.01,3.19-1.22,4.86-1.64c4.58-1.14,8.67-4.13,11.13-8.16
		c0.1,0.97,0.21,1.94,0.31,2.91c2.99-0.91,5.46-3.08,7.31-5.6c1.84-2.52,3.12-5.4,4.38-8.26c0.86,0.59,1.27,1.76,0.96,2.76
		c5.2-2.99,8.23-14.21,8.82-17.66c0.24-1.38,0.99-3.41-0.21-6c-0.4-0.86-0.98-1.62-1.3-2.52c-0.69-1.96,0.03-4.3-0.99-6.11
		c-0.49-0.88-1.33-1.5-2.2-2c-1.37-0.79-3.61-1.76-5.11-2.22c4.63,0.22,3.74,0.24,8.13,1.44
		C213.81,158.02,216.49,162.56,217.36,163.91z"/>
	<path class="st4" d="M101.15,146.63c0.35-2.24,2.05-4.6,3.3-5.38l-2.1,0.23c0.14-1.19,1.87-4.27,4.03-5.11l-2.26-0.57
		c0.55-0.99,4.69-3.97,8.61-3.77l-1.63-1.38c21.08-6.61,18.33,14.83,18.33,14.83c-7.72,9.1-21.46,2.95-22.92,2.31
		C104.79,147.03,102.5,146.28,101.15,146.63z"/>
	<path class="st6" d="M204.56,206.23c-1.26,1.96-3.15,3.43-5.02,4.81c-2.28,1.68-4.6,3.31-6.95,4.89c-1.19,0.79-2.64,1.61-3.97,1.08
		c-0.67-0.27-1.17-0.83-1.6-1.41c-0.64-0.85-1.19-1.76-1.65-2.71c-0.22-0.46-0.45-0.95-0.89-1.2c-0.65-0.36-1.51,0.01-1.94,0.61
		c-0.43,0.6-0.54,1.37-0.62,2.11c-0.34,2.98-0.45,6.29,1.39,8.66c2.25,2.91,6.43,3.27,10.1,3.39c2.28,0.07,4.72,0.11,6.66-1.1
		c2.01-1.25,3.19-3.68,5.4-4.54c1.08-0.42,2.41-0.48,3.14-1.38c0.37-0.45,0.51-1.03,0.64-1.6c1.62-6.93,2.66-13.99,3.11-21.09
		c0.01-0.19,0.02-0.41-0.1-0.56c-0.13-0.16-0.35-0.19-0.56-0.21c-1.36-0.14-2.79-0.24-4.04,0.32c-1.75,0.79-2.09,2.51-1.94,4.2
		C205.9,202.61,205.73,204.39,204.56,206.23z"/>
	<path class="st6" d="M92.45,206.23c1.26,1.96,3.15,3.43,5.02,4.81c2.28,1.68,4.6,3.31,6.95,4.89c1.19,0.79,2.64,1.61,3.97,1.08
		c0.67-0.27,1.17-0.83,1.6-1.41c0.64-0.85,1.19-1.76,1.65-2.71c0.22-0.46,0.45-0.95,0.89-1.2c0.65-0.36,1.51,0.01,1.94,0.61
		c0.43,0.6,0.54,1.37,0.62,2.11c0.34,2.98,0.45,6.29-1.39,8.66c-2.25,2.91-6.43,3.27-10.1,3.39c-2.28,0.07-4.72,0.11-6.66-1.1
		c-2.01-1.25-3.19-3.68-5.4-4.54c-1.08-0.42-2.41-0.48-3.14-1.38c-0.37-0.45-0.51-1.03-0.64-1.6c-1.62-6.93-2.66-13.99-3.11-21.09
		c-0.01-0.19-0.02-0.41,0.1-0.56c0.13-0.16,0.35-0.19,0.56-0.21c1.36-0.14,2.79-0.24,4.04,0.32c1.75,0.79,2.09,2.51,1.94,4.2
		C91.11,202.61,91.27,204.39,92.45,206.23z"/>
	<path class="st4" d="M195.85,146.63c-0.35-2.24-2.05-4.6-3.3-5.38l2.1,0.23c-0.14-1.19-1.87-4.27-4.03-5.11l2.26-0.57
		c-0.55-0.99-4.69-3.97-8.61-3.77l1.63-1.38c-21.08-6.61-18.33,14.83-18.33,14.83c7.72,9.1,21.46,2.95,22.92,2.31
		C192.21,147.03,194.5,146.28,195.85,146.63z"/>
	<g>
		<path class="st7" d="M173.18,196.44c0,7.65-0.37,14.04-1.43,19.19c-2.5,12.15-8.84,17.76-23.24,17.76
			c-14.4,0-20.79-5.61-23.28-17.76c-1.06-5.16-1.43-11.54-1.43-19.19c0-11.17,2.13-21.44,5.65-29.46c0,0,0,0,0-0.04
			c1.72-0.49,3.31-0.98,4.5-1.31c1.02-0.25,0.57,3.03,1.56,2.7c3.36-1.19,6.63-3.6,9.04-5.73c2.41-2.09,3.97-3.89,3.97-3.89
			s6.22,7.2,13.01,9.62c0.94,0.33,0.49-2.95,1.51-2.7c1.19,0.33,2.78,0.82,4.5,1.31c0,0.04,0,0.04,0,0.04
			C171.1,174.99,173.18,185.27,173.18,196.44z"/>
		<path d="M148.51,235.44c-14.93,0-22.5-5.8-25.29-19.39c-1.01-4.88-1.47-11.11-1.47-19.61c0-10.81,2-21.4,5.65-29.89v-1.12
			l3.72-1.12c0.85-0.25,1.62-0.48,2.28-0.66l0.89-0.24l1.07,0.55c0.66,0.43,0.99,1.08,1.17,1.72c2.56-1.25,4.97-3.13,6.66-4.61
			c2.27-1.97,3.76-3.68,3.77-3.69l1.55-1.79l1.55,1.79c0.05,0.06,4.89,5.6,10.4,8.28c0.19-0.63,0.51-1.27,1.16-1.7l0.74-0.48
			l1.16,0.16c0.72,0.2,1.5,0.43,2.36,0.68l3.72,1.08v1.15c3.64,8.39,5.65,18.99,5.65,29.89c0,8.5-0.47,14.73-1.48,19.61
			C170.97,229.64,163.41,235.44,148.51,235.44z M130.96,168.62c-3.31,7.91-5.12,17.75-5.12,27.82c0,8.21,0.44,14.17,1.39,18.78
			c2.38,11.61,8.35,16.13,21.28,16.13c12.9,0,18.86-4.52,21.24-16.13c0.95-4.6,1.39-10.56,1.39-18.78c0-10.16-1.81-20-5.12-27.81
			l-1.31-0.38c-0.2-0.06-0.4-0.12-0.58-0.18c-0.18,0.74-0.49,1.53-1.3,2.01l-0.82,0.48l-1.16-0.29c-5.21-1.85-9.98-6.17-12.34-8.56
			c-0.69,0.69-1.58,1.54-2.63,2.45c-2.31,2.04-5.89,4.76-9.7,6.11l-0.9,0.32l-1.11-0.5c-0.81-0.48-1.13-1.27-1.31-2
			c-0.19,0.06-0.38,0.11-0.58,0.17L130.96,168.62z"/>
	</g>
	<polygon points="226.05,165.5 226.01,165.5 226.01,161.41 	"/>
	<path d="M127.92,140.09c0,4.62-3.77,8.39-8.39,8.39c-4.67,0-8.43-3.76-8.43-8.39c0-4.67,3.76-8.43,8.43-8.43
		C124.16,131.66,127.92,135.42,127.92,140.09z"/>
	<path d="M185.87,140.09c0,4.62-3.72,8.39-8.39,8.39c-4.62,0-8.39-3.76-8.39-8.39c0-4.67,3.76-8.43,8.39-8.43
		C182.15,131.66,185.87,135.42,185.87,140.09z"/>
	<path class="st5" d="M98.73,155.23c-2.88,1.48-5.62,2.94-7.95,4.68c-1.13,0.9-2.19,1.81-2.88,2.87l-0.25,0.39l-0.07,0.09
		l-0.03,0.05c-0.04,0.05-0.01,0.03,0.11-0.19c0.17-0.33,0.17-0.7,0.14-1.02c-0.03-0.34-0.31-0.73-0.32-0.75
		c-0.44-0.45-0.25-0.23-0.22-0.25l0.42,0.16c0.34,0.12,0.73,0.25,1.22,0.46c0.25,0.12,0.49,0.21,0.9,0.51
		c0.14,0.08,0.48,0.41,0.69,0.72c0.33,0.54,0.5,1.21,0.29,1.94c-0.38,1-0.53,1.08-0.79,1.54l-0.7,1.04l-1.34,1.9
		c-0.89,1.17-1.68,2.49-1.99,3.39c-0.05,0.06,0.02,0.24-0.1-0.35c-0.14-0.42-0.51-0.7-0.62-0.71c-0.22-0.08-0.13,0.01,0.02,0.03
		l1.16,0.19c0.27,0.06,0.5,0.09,0.92,0.28c0.37,0.06,1.15,0.88,1.07,1.55l-0.02,1.14c-0.09,1.54-0.16,3.1-0.41,4.75
		c-0.64-1.47-1.11-3.02-1.59-4.61l-0.32-1.2c-0.09,0.26,0.37,0.77,0.37,0.71c0.05,0.04-0.11,0.03-0.24,0.05
		c-0.3,0.03-0.68,0.08-1.19,0.08c-0.25-0.01-0.56,0.01-1.13-0.22c-0.28-0.1-0.82-0.51-1.01-1.12c-0.17-0.79-0.06-0.8-0.08-0.94
		c0.18-2.23,1.15-3.64,1.91-5.12c0.41-0.71,0.86-1.37,1.27-2.02l0.58-0.94c0.15-0.2,0.4-0.81,0.31-0.54
		c-0.14,0.53-0.03,1.02,0.21,1.38c0.07,0.16,0.3,0.33,0.27,0.31c0.1,0.06-0.02-0.02-0.12-0.07l-0.97-0.41l-0.67-0.3
		c-0.31-0.21-0.5-0.14-1.19-0.9c-0.1-0.08-0.39-0.58-0.45-1.01c-0.1-0.42,0-0.88,0.18-1.3c0.12-0.26,0.17-0.31,0.17-0.31l0.05-0.07
		l0.11-0.14l0.45-0.56c1.26-1.41,2.71-2.47,4.26-3.19C92.2,155.71,95.47,155.06,98.73,155.23z"/>
	<path class="st5" d="M198.27,155.23c3.26-0.16,6.53,0.49,9.6,1.97c1.55,0.73,3,1.78,4.26,3.19l0.45,0.56l0.11,0.14l0.05,0.07
		c0,0,0.05,0.05,0.17,0.31c0.18,0.42,0.27,0.89,0.18,1.3c-0.06,0.43-0.36,0.93-0.45,1.01c-0.69,0.76-0.88,0.7-1.19,0.9l-0.67,0.3
		l-0.97,0.41c-0.1,0.04-0.22,0.13-0.12,0.07c-0.03,0.02,0.2-0.15,0.27-0.31c0.25-0.36,0.35-0.85,0.21-1.38
		c-0.1-0.27,0.16,0.33,0.31,0.54l0.58,0.94c0.41,0.65,0.86,1.31,1.27,2.02c0.75,1.47,1.72,2.88,1.91,5.12
		c-0.02,0.14,0.09,0.15-0.08,0.94c-0.19,0.61-0.73,1.02-1.01,1.12c-0.57,0.23-0.88,0.21-1.13,0.22c-0.51,0-0.89-0.04-1.19-0.08
		c-0.12-0.02-0.29-0.01-0.24-0.05c-0.01,0.06,0.46-0.45,0.37-0.71l-0.32,1.2c-0.48,1.58-0.95,3.14-1.59,4.61
		c-0.25-1.65-0.33-3.21-0.41-4.75l-0.02-1.14c-0.08-0.67,0.7-1.49,1.07-1.55c0.42-0.18,0.65-0.21,0.92-0.28l1.16-0.19
		c0.14-0.02,0.23-0.1,0.02-0.03c-0.1,0.02-0.48,0.29-0.62,0.71c-0.12,0.59-0.05,0.41-0.1,0.35c-0.31-0.9-1.1-2.22-1.99-3.39
		l-1.34-1.9l-0.7-1.04c-0.26-0.46-0.41-0.54-0.79-1.54c-0.21-0.73-0.04-1.4,0.29-1.94c0.21-0.3,0.55-0.63,0.69-0.72
		c0.41-0.3,0.65-0.39,0.9-0.51c0.48-0.21,0.87-0.34,1.22-0.46l0.42-0.16c0.03,0.03,0.22-0.2-0.22,0.25
		c-0.01,0.02-0.3,0.41-0.32,0.75c-0.03,0.32-0.03,0.7,0.14,1.02c0.11,0.21,0.15,0.24,0.11,0.19l-0.03-0.05l-0.07-0.09l-0.25-0.39
		c-0.69-1.06-1.76-1.97-2.88-2.87C203.89,158.17,201.15,156.71,198.27,155.23z"/>
	<polygon points="85.23,221.12 85.03,220.45 89.05,219.64 89.19,220.1 	"/>
	<path d="M81.15,193.43l-0.04-0.76c-0.03-0.42-0.04-0.74-0.04-0.94l4.09-0.2c0,0.36,0.02,0.59,0.03,0.9l0.05,0.8L81.15,193.43z"/>
	<path d="M179.39,215.28c-0.1-0.63-0.1-1.31-0.1-1.98h4.09c0,0.47-0.01,0.94,0.06,1.37L179.39,215.28z"/>
	<path d="M211.76,221.14l-3.9-1.25c0.16-0.46,0.3-0.88,0.4-1.31l3.97,0.97C212.12,220.08,211.94,220.61,211.76,221.14z"/>
	<path class="st8" d="M224.01,209.76"/>
	<path class="st8" d="M72.99,209.76"/>
	<g>
		<path class="st9" d="M106.52,227.62c-1.39,0.29-2.86,0.37-4.34,0.37h-17.8c0-2.86,1.06-5.44,2.82-7.41
			c0.2-0.25,0.41-0.45,0.61-0.65c2.01-1.88,4.71-3.03,7.65-3.03c5.48,0,10.03,4.01,10.93,9.29
			C106.48,226.64,106.52,227.13,106.52,227.62z"/>
	</g>
	<g>
		<path class="st9" d="M212.63,227.99h-10.97l-0.04-0.04l0.37-0.41c-0.2,0.04-0.45,0.04-0.7,0.08l0.33,0.33l-0.04,0.04h-6.75
			c-1.47,0-2.95-0.08-4.34-0.37c0-0.57,0.08-1.15,0.2-1.68c0.94-5.16,5.44-9.04,10.84-9.04c2.05,0,3.93,0.53,5.57,1.51
			c0.04,0.04,0.08,0.04,0.12,0.04c0.98,0.57,1.84,1.27,2.58,2.09v0.04C211.57,222.55,212.63,225.12,212.63,227.99z"/>
	</g>
	<circle class="st10" cx="122.13" cy="137.95" r="2.61"/>
	<circle class="st10" cx="180.09" cy="137.95" r="2.61"/>
	<path class="st11" d="M76.16,84.63c0,0-11.04,7.25-11.04,17.53C65.12,102.16,59.5,84.63,76.16,84.63z"/>
	<path class="st11" d="M222.88,84.63c0,0,11.04,7.25,11.04,17.53C233.92,102.16,239.54,84.63,222.88,84.63z"/>
	<path class="st11" d="M173.18,196.44c0,0-11.12-23.45-24.7-9.88c-13.57-13.57-24.7,9.88-24.7,9.88
		c-0.73,21.58,5.37,30.91,12.92,34.67c-0.05,1.97,2.63,3.54,13.17,2.26C171.95,230.71,173.44,215.49,173.18,196.44z"/>
	<path class="st2" d="M218.89,109.44c-2.62-1.15-5.12-2.5-7.49-4.05"/>
	<path class="st2" d="M79.63,106.74c3.4-3.72,7.2-7.08,11.34-9.94l0.04-0.04"/>
	<path class="st12" d="M196.39,222.31l5.15,5.15l5.19-5.19C206.74,222.28,202.21,216.49,196.39,222.31z"/>
	<path class="st12" d="M195.24,223.46l5.13,5.18l-7.75,0.06C192.64,227.17,193.3,225.38,195.24,223.46z"/>
	<path class="st12" d="M207.92,223.53l-5.13,5.18l7.75-0.07C210.49,227.13,209.81,225.4,207.92,223.53z"/>
	<path class="st12" d="M100.61,222.31l-5.15,5.15l-5.19-5.19C90.27,222.28,94.79,216.49,100.61,222.31z"/>
	<path class="st12" d="M101.76,223.46l-5.13,5.18l7.75,0.06C104.36,227.17,103.7,225.38,101.76,223.46z"/>
	<path class="st12" d="M89.08,223.53l5.13,5.18l-7.75-0.07C86.51,227.13,87.19,225.4,89.08,223.53z"/>
	<path class="st13" d="M205.07,221.87c-0.27,0.27-1.47-0.84-3.51-0.84s-3.23,1.12-3.51,0.86
		C198.06,221.89,201.13,217.93,205.07,221.87"/>
	<path class="st13" d="M91.93,221.87c0.27,0.27,1.47-0.84,3.51-0.84s3.23,1.12,3.51,0.86C98.95,221.89,95.87,217.93,91.93,221.87"/>
	<path d="M262.96,125.48c0-0.89-0.39-1.7-1.11-2.29c-2.13-1.75-8.36-1.23-13.5-0.41c2.71-6.67,4.38-14.09,4.38-19.77
		c0-13.63-11.09-24.72-24.72-24.72c-10.38,0-19.56,6.57-23.12,16.05c-1.53-1.6-3.14-3.17-4.9-4.77
		c-9.39-8.4-27.78-18.73-28.56-19.17l-4.69-2.62l1.75,5.08c0.74,2.13,0.68,5.71,0.48,8.42c-5.28-3.61-11.85-12.24-14.24-15.73
		l-1.24-1.8l-1.72,1.35c-2.05,1.61-3.28,4.09-4.04,6.3c-1.26-2.55-1.15-3.88-1.16-3.88l0.61-3l-3,0.58
		c-11.09,2.16-25.84,10.55-34.21,17.84c-0.18-0.94-0.29-2.27-0.11-4.09l0.54-5.54l-4,3.88c-0.07,0.07-6.78,6.59-13.43,14.12
		c-4.31-8-12.53-13.02-21.76-13.02c-13.63,0-24.72,11.09-24.72,24.72c0,5.68,1.67,13.1,4.38,19.77c-4.83-0.76-11.29-1.36-13.46,0.41
		c-0.71,0.59-1.11,1.4-1.11,2.29c0,4.01,18.71,33.07,32.83,39.42c1.75,10.38,5.75,19.63,11.97,27.57l0.06,1.02
		c0.39,6.54,1.4,18.56,3.78,26.64c-1.68,2.26-2.6,5.01-2.6,7.86v2.05h19.85c1.89,0,3.4-0.13,4.75-0.41l1.07-0.22l0.04,0.02
		l0.25-0.08l0.27-0.06v-0.03l0.31-0.1c5.39-1.76,8.47-6.15,9.17-13.2c1.72,0.5,3.54,0.97,5.48,1.4
		c3.01,12.64,10.54,18.08,24.98,18.08c14.41,0,21.94-5.44,24.94-18.09c2.11-0.48,4.09-0.98,5.96-1.53
		c0.48,6.87,3.18,11.32,8.04,13.21l0,0c0.02,0.01,0.04,0.01,0.06,0.02l0.68,0.27l0.03-0.01c1.96,0.64,4.07,0.84,6.18,0.84
		c1.04,0,2.08-0.05,3.1-0.11h17.17v-2.05c0-2.85-0.92-5.59-2.6-7.84l0.15-0.53c2.01-7.16,2.99-16.99,3.38-22.21l0-0.01l0,0
		c0.14-2.01,0.23-3.63,0.28-4.64l0.01-0.3c2.66-3.42,4.95-7.1,6.79-10.93c2.42-5.02,4.14-10.51,5.14-16.35
		C242.05,161.39,262.96,129.77,262.96,125.48z M40.63,126.2c2.13-0.34,7.65,0.22,12.34,1.1c2.06,4.12,4.48,7.56,7.05,9.98l2.81-2.98
		c-2.4-2.26-4.69-5.61-6.63-9.7l-0.5-0.97c-3.08-6.68-5.11-14.83-5.11-20.62c0-11.37,9.25-20.62,20.62-20.62
		c8.24,0,15.53,4.79,18.88,12.29c-0.2,0.23-0.38,0.45-0.57,0.67c-0.23,0.27-0.46,0.54-0.68,0.81c-0.24,0.29-0.47,0.57-0.71,0.85
		c-0.22,0.26-0.44,0.53-0.65,0.79c-0.23,0.28-0.44,0.55-0.66,0.83c-0.2,0.25-0.4,0.5-0.59,0.74c-0.22,0.28-0.43,0.56-0.64,0.84
		c-0.17,0.22-0.34,0.45-0.51,0.67c-0.22,0.29-0.42,0.58-0.63,0.86c-0.14,0.19-0.29,0.39-0.42,0.58c-0.22,0.31-0.42,0.6-0.63,0.9
		c-0.11,0.15-0.22,0.31-0.32,0.47c-0.23,0.34-0.45,0.68-0.66,1.01c-0.06,0.1-0.13,0.2-0.19,0.29c-0.27,0.42-0.52,0.83-0.75,1.23
		l-5.96,2.71l-0.04,1.27c-0.09,2.66,1.23,4.63,2.63,5.88c-1.45,1.83-4.47,4.94-7.18,7.46l-0.95,0.89l0.4,1.24
		c0.71,2.22,2.12,3.36,3.48,3.9c-0.72,4.57-1.93,9.38-6.46,12.49l-3.17,2.18l5.84,2.3c-0.95,1.51-1.92,3.64-1.92,6.05
		c0,1.09,0.03,2.2,0.08,3.31c0.01,0.33,0.04,0.67,0.05,1c0.04,0.8,0.1,1.61,0.17,2.41c0.02,0.22,0.03,0.44,0.05,0.65
		C57.16,152.94,42.76,131.38,40.63,126.2z M102.18,225.94H86.66c0.34-1.48,1.06-2.87,2.12-4.05c0.16-0.2,0.33-0.36,0.44-0.47
		c1.7-1.59,3.92-2.47,6.25-2.47c0.27,0,0.53,0.01,0.8,0.04c0.09,0.01,0.18,0.02,0.27,0.03c0.17,0.02,0.34,0.04,0.51,0.07
		c0.11,0.02,0.21,0.05,0.32,0.07c0.15,0.03,0.29,0.06,0.43,0.1c0.12,0.03,0.23,0.07,0.35,0.11c0.13,0.04,0.26,0.08,0.38,0.12
		c0.12,0.04,0.24,0.1,0.36,0.14c0.11,0.05,0.23,0.09,0.34,0.15c0.12,0.06,0.24,0.12,0.37,0.18c0.1,0.05,0.2,0.11,0.3,0.16
		c0.12,0.07,0.25,0.15,0.37,0.22c0.09,0.06,0.18,0.11,0.27,0.17c0.12,0.08,0.24,0.17,0.36,0.26c0.08,0.06,0.16,0.12,0.23,0.18
		c0.12,0.1,0.24,0.2,0.36,0.31c0.07,0.06,0.13,0.12,0.2,0.18c0.12,0.12,0.24,0.23,0.35,0.36c0.06,0.06,0.11,0.12,0.16,0.18
		c0.12,0.13,0.23,0.26,0.34,0.4c0.04,0.06,0.09,0.11,0.13,0.17c0.11,0.15,0.22,0.3,0.32,0.45c0.04,0.05,0.07,0.11,0.11,0.17
		c0.1,0.16,0.2,0.32,0.29,0.49c0.03,0.05,0.06,0.11,0.08,0.16c0.09,0.17,0.18,0.35,0.26,0.53c0.02,0.05,0.04,0.11,0.07,0.16
		c0.08,0.18,0.15,0.37,0.22,0.56c0.02,0.06,0.04,0.12,0.06,0.18c0.06,0.19,0.12,0.38,0.17,0.57c0,0.01,0,0.02,0.01,0.04
		C103.62,225.92,102.94,225.94,102.18,225.94z M171.12,199.42c-0.1,6.71-0.54,11.78-1.37,15.8c-2.38,11.61-8.33,16.13-21.24,16.13
		c-12.93,0-18.9-4.52-21.28-16.13c-0.95-4.61-1.39-10.57-1.39-18.78c0-10.07,1.81-19.91,5.12-27.82l1.32-0.38
		c0.2-0.06,0.39-0.12,0.58-0.17c0.18,0.73,0.5,1.53,1.31,2l1.11,0.5l0.9-0.32c3.81-1.35,7.39-4.07,9.7-6.11
		c0.2-0.17,0.39-0.34,0.58-0.51v54.32h4.09v-54.31c2.59,2.34,6.31,5.2,10.3,6.61l1.16,0.29l0.82-0.48c0.81-0.48,1.13-1.27,1.3-2.01
		c0.19,0.06,0.38,0.12,0.58,0.18l1.31,0.38c3.3,7.82,5.12,17.65,5.12,27.81C171.14,197.47,171.13,198.46,171.12,199.42z
		 M194.83,225.94c-0.74,0-1.41-0.02-2.02-0.07c0.02-0.07,0.03-0.15,0.05-0.22c0.02-0.09,0.05-0.18,0.08-0.27
		c0.05-0.16,0.1-0.31,0.15-0.47c0.03-0.1,0.07-0.19,0.11-0.28c0.06-0.14,0.12-0.29,0.18-0.42c0.04-0.1,0.09-0.2,0.14-0.29
		c0.06-0.13,0.13-0.26,0.2-0.38c0.06-0.1,0.11-0.2,0.17-0.3c0.07-0.12,0.15-0.23,0.22-0.34c0.07-0.1,0.13-0.2,0.21-0.29
		c0.08-0.1,0.16-0.21,0.24-0.31c0.08-0.1,0.16-0.19,0.24-0.29c0.08-0.09,0.17-0.18,0.25-0.27c0.09-0.09,0.18-0.19,0.27-0.28
		c0.09-0.08,0.18-0.16,0.27-0.24c0.1-0.09,0.2-0.18,0.3-0.26c0.09-0.07,0.19-0.14,0.28-0.21c0.11-0.08,0.21-0.16,0.32-0.24
		c0.1-0.07,0.2-0.13,0.29-0.19c0.11-0.07,0.23-0.14,0.35-0.21c0.1-0.06,0.21-0.11,0.31-0.16c0.12-0.06,0.24-0.13,0.36-0.18
		c0.11-0.05,0.22-0.09,0.33-0.14c0.12-0.05,0.24-0.1,0.37-0.15c0.12-0.04,0.24-0.08,0.36-0.12c0.12-0.04,0.24-0.08,0.36-0.11
		c0.14-0.04,0.27-0.06,0.41-0.09c0.11-0.02,0.22-0.05,0.34-0.07c0.16-0.03,0.33-0.05,0.49-0.07c0.09-0.01,0.19-0.03,0.28-0.04
		c0.26-0.02,0.53-0.04,0.79-0.04c1.59,0,3.06,0.38,4.38,1.14l0.73,0.41c0.42,0.28,0.82,0.6,1.18,0.94l0.46,0.51
		c1.02,1.14,1.73,2.51,2.07,3.99H194.83z M219.01,179.76c-1.8,3.76-4.06,7.37-6.82,10.84c-0.5,0.6-1,1.21-1.53,1.77l-0.84,0.89
		l0,0.01c-2.03,2.2-4.21,4.24-6.51,6.06l2.53,3.21c1.95-1.54,3.82-3.23,5.6-5.03c0.02,0.04,0.04,0.08,0.06,0.13
		c-0.38,4.77-1.21,12.86-2.78,19.25c-0.18-0.07-0.35-0.14-0.49-0.22l-0.02-0.01l-0.42-0.24h-0.02h-0.04
		c-1.88-1.03-3.96-1.55-6.18-1.55c-0.38,0-0.76,0.02-1.14,0.05c-0.13,0.01-0.27,0.03-0.4,0.05c-0.24,0.03-0.48,0.05-0.71,0.1
		c-0.17,0.03-0.33,0.07-0.49,0.1c-0.2,0.04-0.4,0.08-0.59,0.13c-0.18,0.05-0.36,0.11-0.54,0.16c-0.17,0.05-0.33,0.1-0.5,0.16
		c-0.2,0.07-0.39,0.15-0.59,0.23c-0.14,0.06-0.28,0.11-0.41,0.17c-0.21,0.1-0.42,0.2-0.62,0.31c-0.11,0.06-0.22,0.11-0.33,0.17
		c-0.22,0.12-0.44,0.26-0.66,0.39c-0.08,0.05-0.16,0.1-0.24,0.15c-0.23,0.15-0.46,0.32-0.68,0.49c-0.05,0.04-0.11,0.08-0.16,0.12
		c-0.24,0.19-0.47,0.38-0.7,0.59c-0.03,0.02-0.05,0.05-0.08,0.07c-0.24,0.22-0.48,0.46-0.71,0.7c-0.01,0.01-0.01,0.01-0.01,0.02
		c-1.2,1.29-2.15,2.82-2.75,4.52c0,0.01,0,0.01-0.01,0.02c-0.11,0.32-0.21,0.65-0.3,0.98c-0.01,0.02-0.01,0.04-0.02,0.06
		c-0.22,0.11-0.45,0.22-0.68,0.32c-2.02-1-4.34-3.2-4.74-9.48c0.19-0.38,0.35-0.74,0.49-1.1c2.44-0.84,4.75-1.73,6.87-2.69
		l-1.69-3.73c-1.54,0.69-3.19,1.36-4.93,1.99l-2.55,0.89c-2.29,0.8-4.73,1.51-7.39,2.16c0.03-0.18,0.05-0.38,0.07-0.57
		c0.02-0.18,0.05-0.37,0.07-0.55c0.06-0.49,0.12-1,0.18-1.52c0.02-0.18,0.04-0.36,0.06-0.55c0.14-1.39,0.25-2.88,0.34-4.46
		c0.01-0.24,0.02-0.5,0.04-0.74c0.03-0.56,0.05-1.14,0.07-1.73c0.01-0.29,0.02-0.59,0.03-0.89c0.02-0.6,0.03-1.21,0.04-1.84
		c0.01-0.28,0.01-0.56,0.02-0.85c0.01-0.91,0.02-1.85,0.02-2.82c0-9.49-1.52-18.74-4.32-26.52c1.26,0.26,2.5,0.43,3.6,0.43
		c0.25,0,0.49-0.01,0.73-0.02l1.28-0.16l0.58-0.85c0.3-0.44,0.39-0.88,0.39-1.31c2.33-0.59,4.59-1.52,6.73-2.8l-2.09-3.52
		c-2.23,1.33-4.62,2.22-7.11,2.65l-1.15,0.32l-0.47,0.81c-0.13,0.22-0.21,0.45-0.26,0.67c-1.16-0.16-2.45-0.46-3.55-0.75v-0.02
		l-3.72-1.08c-0.86-0.26-1.63-0.48-2.36-0.68l-1.16-0.16l-0.74,0.48c-0.65,0.43-0.97,1.07-1.16,1.7c-5.51-2.68-10.34-8.22-10.4-8.28
		l-1.55-1.79l-1.55,1.79c-0.02,0.02-1.5,1.72-3.77,3.69c-1.69,1.49-4.1,3.36-6.66,4.61c-0.19-0.64-0.51-1.29-1.17-1.72l-1.07-0.55
		l-0.89,0.24c-0.65,0.18-1.43,0.41-2.28,0.66l-3.16,0.95c-1.13,0.31-2.69,0.7-4.09,0.88c-0.05-0.22-0.13-0.44-0.26-0.66l-0.73-0.98
		l-0.94-0.16c-2.46-0.42-4.84-1.31-7.08-2.65l-2.09,3.52c2.15,1.28,4.42,2.22,6.75,2.8c0,0.42,0.09,0.87,0.39,1.31l0.78,0.92
		l0.98,0.08c0.25,0.02,0.51,0.03,0.78,0.03c1.11,0,2.35-0.17,3.63-0.43c-2.8,7.84-4.33,17.09-4.33,26.51c0,0.97,0.01,1.91,0.02,2.83
		c0,0.27,0.01,0.53,0.01,0.8c0.01,0.65,0.03,1.28,0.04,1.9c0.01,0.28,0.02,0.56,0.03,0.83c0.02,0.63,0.05,1.24,0.08,1.83
		c0.01,0.21,0.02,0.43,0.03,0.64c0.09,1.6,0.2,3.1,0.34,4.51c0.02,0.18,0.04,0.35,0.06,0.52c0.05,0.51,0.11,1.02,0.18,1.51
		c0.03,0.21,0.05,0.42,0.08,0.63c0.02,0.18,0.05,0.36,0.07,0.53c-2.11-0.51-4.05-1.07-5.89-1.69l-4.46-1.52
		c-1.56-0.59-3.06-1.2-4.46-1.84l-1.69,3.72c2.37,1.08,4.95,2.08,7.68,2.99c0.05,0.12,0.1,0.25,0.14,0.37l0.03,0.07
		c-0.5,6.67-3.26,8.92-5.63,9.9c-0.06-0.03-0.12-0.06-0.19-0.1c-0.01-0.04-0.02-0.07-0.03-0.11c-0.04-0.15-0.09-0.3-0.13-0.45
		c-0.07-0.22-0.13-0.44-0.21-0.66c-0.05-0.15-0.11-0.29-0.17-0.43c-0.08-0.21-0.17-0.42-0.26-0.63c-0.06-0.14-0.13-0.28-0.2-0.41
		c-0.1-0.2-0.2-0.4-0.31-0.6c-0.07-0.13-0.15-0.26-0.23-0.39c-0.12-0.19-0.23-0.38-0.36-0.56c-0.08-0.12-0.17-0.25-0.26-0.37
		c-0.13-0.18-0.26-0.36-0.4-0.53c-0.09-0.12-0.19-0.23-0.29-0.34c-0.15-0.17-0.29-0.33-0.45-0.49c-0.1-0.11-0.21-0.21-0.31-0.32
		c-0.16-0.15-0.32-0.3-0.49-0.45c-0.11-0.1-0.22-0.19-0.34-0.29c-0.17-0.14-0.35-0.28-0.52-0.41c-0.12-0.09-0.24-0.18-0.36-0.26
		c-0.18-0.13-0.37-0.24-0.56-0.36c-0.13-0.08-0.25-0.16-0.38-0.23c-0.19-0.11-0.39-0.21-0.59-0.31c-0.13-0.07-0.26-0.14-0.4-0.2
		c-0.2-0.09-0.41-0.18-0.62-0.26c-0.14-0.06-0.27-0.11-0.42-0.17c-0.21-0.08-0.43-0.14-0.65-0.21c-0.14-0.04-0.28-0.09-0.42-0.13
		c-0.23-0.06-0.46-0.11-0.69-0.16c-0.14-0.03-0.28-0.07-0.42-0.09c-0.25-0.04-0.51-0.07-0.77-0.1c-0.12-0.01-0.24-0.04-0.37-0.05
		c-0.38-0.03-0.77-0.05-1.16-0.05c-0.38,0-0.76,0.02-1.14,0.05c-0.11,0.01-0.22,0.02-0.33,0.04c-0.28,0.03-0.56,0.07-0.83,0.12
		c-0.11,0.02-0.21,0.04-0.32,0.06c-0.36,0.07-0.71,0.16-1.06,0.26c-0.01,0-0.01,0-0.02,0.01c-0.38,0.11-0.75,0.24-1.11,0.38
		c-0.06,0.02-0.12,0.05-0.17,0.07c-0.31,0.13-0.62,0.27-0.92,0.42c-0.06,0.03-0.12,0.06-0.18,0.09c-0.37,0.19-0.73,0.39-1.08,0.62
		c-1.49-6-2.33-13.69-2.78-19.49c1.76,1.78,3.63,3.48,5.65,5.07l2.53-3.21c-2.67-2.1-5.09-4.4-7.25-6.84l-1.76-2.04
		c-6.21-7.72-10.15-16.9-11.72-27.28c-0.5-3.56-0.76-7.12-0.76-10.6c0-0.18,0.01-0.36,0.03-0.54c0.28-2.69,2.49-4.94,2.51-4.96
		l2.24-2.21l-4.54-1.79c4.21-4.42,5.04-10.14,5.72-14.89l0.3-2.48l-2.51,0.15c-0.31,0.02-0.73-0.04-1.12-0.41
		c2.54-2.43,7.13-7.02,7.93-9.25l0.61-1.73l-1.64-0.81c-0.08-0.04-1.49-0.76-2.01-2.16l4.63-2.1l0.33-0.58
		c1.78-3.18,4.91-7.34,9.29-12.38l0.5-0.58V95.8v-0.01c4.14-4.8,8.52-9.37,11.42-12.32c0.51,2.93,1.73,4.15,2.06,4.43l1.43,1.23
		l1.34-1.32c6.74-6.63,21.02-15.3,32.01-18.18c0.42,1.86,1.51,4.56,4.13,8.04l0.62,0.82h1.02c1.69,0,2.03-1.56,2.21-2.4
		c0.27-1.24,0.87-4.03,2.16-6.1c3.27,4.46,10.89,14.14,17.1,16.44l2.36,0.87l0.38-2.48c0.1-0.62,0.68-4.71,0.46-8.69
		c5.93,3.5,17.53,10.61,24.1,16.48c2.41,2.18,4.55,4.32,6.53,6.54l0,0l0,0.08l0.56,0.59c0.74,0.78,1.44,1.6,2.11,2.42
		c3.42,4.18,6.45,8.69,8.99,13.42l0.62,1.16l4.34-0.28c-0.66,1.74-1.71,2.98-1.72,2.99l-3.06,3.51l8.39-0.21
		c-0.79,1.2-1.98,2.2-2.53,2.58l-1.28,0.88l0.49,1.46c0.28,0.85,0.62,1.99,1.01,3.34c1.63,5.58,4.17,14.29,8.14,19.99
		c-0.86,0.03-1.63-0.07-2.04-0.31l-3.04-1.69v3.48c0,3.53-0.25,7-0.76,10.6l-0.01,0.05C223.12,169.15,221.44,174.71,219.01,179.76z
		 M228.45,160.71c0.02-0.15,0.02-0.29,0.04-0.43c0.06-0.61,0.11-1.23,0.16-1.84c0.02-0.26,0.04-0.53,0.06-0.79
		c0.05-0.83,0.1-1.67,0.12-2.5c2.4,0.18,4.87-0.35,5.51-0.51l3.75-0.89l-2.83-2.61c-4.68-4.3-7.88-15.29-9.6-21.19
		c-0.22-0.77-0.43-1.48-0.62-2.11c1.52-1.33,3.84-3.89,3.84-7.12v-2.1l-4.94,0.12c0.54-1.22,1-2.69,1.09-4.3l0.13-2.3l-6.73,0.43
		c-2.53-4.54-5.49-8.88-8.79-12.91c-0.5-0.62-1.03-1.24-1.57-1.85c2.33-9.01,10.56-15.44,19.95-15.44
		c11.37,0,20.62,9.25,20.62,20.62c0,6.06-2.23,14.73-5.56,21.57l0,0l0,0c-2.05,4.23-4.29,7.5-6.64,9.72l2.81,2.98
		c2.53-2.38,4.9-5.75,7.05-9.98c5.11-0.95,10.22-1.4,12.28-1.11C256.09,131.9,239.99,156.08,228.45,160.71z"/>
</g>
</svg>
