<svg id="Layer_1" data-name="Layer 1" xmlns="http://www.w3.org/2000/svg" viewBox="0 0 226.66 171.69"><defs><style>.cls-1{fill:#bb6066;}.cls-2{fill:#792744;}.cls-3,.cls-9{fill:none;}.cls-4{fill:#9fdceb;}.cls-5{fill:#7fbee3;}.cls-6{fill:#acf1f2;}.cls-7{fill:#81a5da;}.cls-8{fill:#eb737f;}.cls-9{stroke:#000;stroke-miterlimit:10;}.cls-10{fill:#942321;}.cls-11{fill:#fff;}.cls-12{fill:#e8aeb3;}.cls-13{fill:#b14042;}.cls-14{fill:#e29697;}</style></defs><path class="cls-1" d="M260.92,125.48c0,3.19-21.4,36.34-34.87,38a77.62,77.62,0,0,0,.78-10.89c2.21,1.23,7,.08,7,.08-6.18-5.69-9.58-20.62-11.21-25.54,0,0,4.17-2.82,4.17-6.38l-6.59.16a12.25,12.25,0,0,0,2.74-6.55l-5.73.37A85.93,85.93,0,0,0,208,101c-.7-.86-1.43-1.72-2.21-2.54v0A22.66,22.66,0,0,1,250.68,103c0,6.1-2.13,15-5.77,22.47C244.92,125.48,260.92,122.29,260.92,125.48Z" transform="translate(-36.3 -63.75)"/><path class="cls-1" d="M244.92,125.48a35.55,35.55,0,0,1-7.08,10.31" transform="translate(-36.3 -63.75)"/><path class="cls-2" d="M259,129.78c-5.52,9.82-21.85,32.33-32.9,33.68a77.62,77.62,0,0,0,.78-10.89c2.21,1.23,7,.08,7,.08a25.7,25.7,0,0,1-4.87-7.08,3.59,3.59,0,0,0,1.68-2.95,4.78,4.78,0,0,1,1.51,5.16c5.85-1.47,11-6,10.31-12a9.21,9.21,0,0,1,2.58,4.42,16.44,16.44,0,0,0,4-11.09c1.39,2.29,3.36,2,6.06,1.68A22,22,0,0,0,259,129.78Z" transform="translate(-36.3 -63.75)"/><path class="cls-2" d="M235.75,123.39a22.16,22.16,0,0,1-11.17,10.15c-.82-2.7-1.43-5-1.92-6.42,0,0,4.17-2.82,4.17-6.38l-4.87.12a18.18,18.18,0,0,0,8.84-11c0,.86.7,2.82.7,3.68a18.89,18.89,0,0,1-.53,4.3A20.37,20.37,0,0,1,225.9,127,8.56,8.56,0,0,0,235.75,123.39Z" transform="translate(-36.3 -63.75)"/><path class="cls-3" d="M76.16,127.89a56.69,56.69,0,0,1-1.27,6.55,22.37,22.37,0,0,1-13.67-11,8.64,8.64,0,0,0,9.9,3.64A20.47,20.47,0,0,1,66,117.86a18.84,18.84,0,0,1-.49-4.3c0-.86.7-2.82.7-3.68a18.25,18.25,0,0,0,9.86,11.46c-2,2-3.76,3.68-3.76,3.68A3.73,3.73,0,0,0,76.16,127.89Z" transform="translate(-36.3 -63.75)"/><path class="cls-3" d="M70.18,152.57A78.17,78.17,0,0,0,71,163.46c-10.56-3.89-24.72-23.33-30.24-32.9a7.07,7.07,0,0,0,8.06-3.06c.08,4.46.29,9.25,3.11,12.73a16.79,16.79,0,0,1,3.44-6.06,13.08,13.08,0,0,0,9.49,13.63,4.86,4.86,0,0,1,1.51-5.2c-.08,2.41,2.66,4.21,5,3.85a6.31,6.31,0,0,0,1.68-.53A10.72,10.72,0,0,0,70.18,152.57Z" transform="translate(-36.3 -63.75)"/><path class="cls-1" d="M92.44,95v0a83.71,83.71,0,0,0-9.53,12.73l-5.4,2.46c-.12,3.6,3.36,5.24,3.36,5.24-.45,1.23-2.7,3.72-4.79,5.85a18.22,18.22,0,0,1-9.86-11.46c0,.86-.7,2.82-.7,3.68a18.84,18.84,0,0,0,.49,4.3A20.37,20.37,0,0,0,71.13,127a8.64,8.64,0,0,1-9.9-3.64,22.37,22.37,0,0,0,13.67,11,15.88,15.88,0,0,1-6.34,9.29l4.79,1.88s-.08.08-.25.29h0a5.87,5.87,0,0,1-1.68.53c-2.37.37-5.12-1.43-5-3.85a4.85,4.85,0,0,0-1.51,5.2,13.07,13.07,0,0,1-9.49-13.63,16.79,16.79,0,0,0-3.44,6.06c-2.82-3.48-3-8.27-3.11-12.73a7.2,7.2,0,0,1-6.87,3.31,5.61,5.61,0,0,1-1.19-.25c-1.51-2.58-2.37-4.46-2.37-5.07,0-3.11,15.35-.12,16,0C50.69,118,48.56,109.11,48.56,103a22.66,22.66,0,0,1,43.88-8Z" transform="translate(-36.3 -63.75)"/><path class="cls-1" d="M61.42,135.79a34.79,34.79,0,0,1-7.08-10.31h0" transform="translate(-36.3 -63.75)"/><path class="cls-3" d="M54.34,125.48h0" transform="translate(-36.3 -63.75)"/><path class="cls-2" d="M76.16,127.89a56.69,56.69,0,0,1-1.27,6.55,22.37,22.37,0,0,1-13.67-11,8.64,8.64,0,0,0,9.9,3.64A20.47,20.47,0,0,1,66,117.86a18.84,18.84,0,0,1-.49-4.3c0-.86.7-2.82.7-3.68a18.25,18.25,0,0,0,9.86,11.46c-2,2-3.76,3.68-3.76,3.68A3.73,3.73,0,0,0,76.16,127.89Z" transform="translate(-36.3 -63.75)"/><path class="cls-2" d="M70.18,152.57A78.17,78.17,0,0,0,71,163.46c-10.56-3.89-24.72-23.33-30.24-32.9a7.07,7.07,0,0,0,8.06-3.06c.08,4.46.29,9.25,3.11,12.73a16.79,16.79,0,0,1,3.44-6.06,13.08,13.08,0,0,0,9.49,13.63,4.86,4.86,0,0,1,1.51-5.2c-.08,2.41,2.66,4.21,5,3.85a6.31,6.31,0,0,0,1.68-.53A10.72,10.72,0,0,0,70.18,152.57Z" transform="translate(-36.3 -63.75)"/><path class="cls-1" d="M92.44,95v0a83.71,83.71,0,0,0-9.53,12.73l-5.4,2.46c-.12,3.6,3.36,5.24,3.36,5.24-.45,1.23-2.7,3.72-4.79,5.85a18.22,18.22,0,0,1-9.86-11.46c0,.86-.7,2.82-.7,3.68a18.84,18.84,0,0,0,.49,4.3A20.37,20.37,0,0,0,71.13,127a8.64,8.64,0,0,1-9.9-3.64,22.37,22.37,0,0,0,13.67,11,15.88,15.88,0,0,1-6.34,9.29l4.79,1.88s-.08.08-.25.29h0a5.87,5.87,0,0,1-1.68.53c-2.37.37-5.12-1.43-5-3.85a4.85,4.85,0,0,0-1.51,5.2,13.07,13.07,0,0,1-9.49-13.63,16.79,16.79,0,0,0-3.44,6.06c-2.82-3.48-3-8.27-3.11-12.73a7.2,7.2,0,0,1-6.87,3.31,5.61,5.61,0,0,1-1.19-.25c-1.51-2.58-2.37-4.46-2.37-5.07,0-3.11,15.35-.12,16,0C50.69,118,48.56,109.11,48.56,103a22.66,22.66,0,0,1,43.88-8Z" transform="translate(-36.3 -63.75)"/><path class="cls-1" d="M61.42,135.79a34.79,34.79,0,0,1-7.08-10.31h0" transform="translate(-36.3 -63.75)"/><path class="cls-3" d="M54.34,125.48h0" transform="translate(-36.3 -63.75)"/><path class="cls-4" d="M233.87,153.3s-4.83,1.15-7-.08a77.62,77.62,0,0,1-.78,10.89,60,60,0,0,1-5.2,17.19,58.2,58.2,0,0,1-7,11.09c-.57.7-1.15,1.39-1.76,2.05a32.78,32.78,0,0,0,1.31,3.27c0,.08.08.12.12.2-.45,5.85-1.43,15.1-3.31,21.81a4.11,4.11,0,0,1-1.84-.12,6.21,6.21,0,0,1-1.19-.49.15.15,0,0,1-.12,0,10.74,10.74,0,0,0-5.57-1.51,11,11,0,0,0-10.84,9,17.93,17.93,0,0,1-2.5,1.19c-3.68-1.43-6.47-4.79-6.79-12.15a9.51,9.51,0,0,0,.94-2.25,87.84,87.84,0,0,1-10.6,2.91c1.06-5.16,1.43-11.54,1.43-19.19,0-11.17-2.09-21.44-5.65-29.46v0c-1.72-.49-3.31-1-4.5-1.31-1-.25-.57,3-1.51,2.7-6.79-2.41-13-9.62-13-9.62a43.36,43.36,0,0,1-4,3.89,29.67,29.67,0,0,1-9,5.73c-1,.33-.53-2.95-1.56-2.7-1.19.33-2.78.82-4.5,1.31v0c-3.52,8-5.65,18.29-5.65,29.46,0,7.65.37,14,1.43,19.19a81.2,81.2,0,0,1-9.08-2.41,3.58,3.58,0,0,1-.7-.2c.12.41.29.82.45,1.23.08.16.12.29.2.45v0c-.45,7.78-3.72,11.13-7.86,12.48-.61-.33-1.23-.65-1.84-1a11.11,11.11,0,0,0-18.58-6.26,6.2,6.2,0,0,1-.78.12c-2.62-8.47-3.56-21.85-3.85-26.68v0l.74-.61c-.29-.33-.53-.65-.82-1a58.32,58.32,0,0,1-12.15-28.28,78.06,78.06,0,0,1-.78-10.89c0-3.85,3.15-7,3.15-7l-4.79-1.88c5.89-4,6.83-10.44,7.61-15.84a3.73,3.73,0,0,1-3.85-2.86s7.69-7.16,8.55-9.53c0,0-3.48-1.64-3.36-5.24l5.4-2.46A85.58,85.58,0,0,1,92.4,95.75v0c7.28-8.51,15.39-16.37,15.39-16.37-.57,5.93,1.47,7.69,1.47,7.69,7.65-7.53,23.69-17,35.27-19.23,0,0-.65,3.23,3.93,9.33.2,0,.9-6.88,4.54-9.74,0,0,10.35,15.1,17.64,17.8,0,0,1.23-8.06-.25-12.32,0,0,18.87,10.56,28.2,18.91a86.77,86.77,0,0,1,7.2,7.28v0c.78.82,1.51,1.68,2.21,2.54a85.93,85.93,0,0,1,9.21,13.75l5.73-.37a12.25,12.25,0,0,1-2.74,6.55l6.59-.16c0,3.56-4.17,6.38-4.17,6.38C224.29,132.68,227.69,147.61,233.87,153.3Z" transform="translate(-36.3 -63.75)"/><path class="cls-5" d="M77,110.25s5.23,2.72,7.65,2.11l-1.76,3Z" transform="translate(-36.3 -63.75)"/><path class="cls-5" d="M222.89,144.64c.38,3.8.9,3.16,3.16,6.25.29.4,0,1.2.48,1.41.85.4,4.55,1.66,5.11.72s.43-.22-.25-.74c-1.57-1.2-2.57-1.87-4.92-3.45A13.87,13.87,0,0,1,222.89,144.64Z" transform="translate(-36.3 -63.75)"/><path class="cls-5" d="M221.38,115.72s-6,5.38-9,5.73l3.41,1.48,4.21-3Z" transform="translate(-36.3 -63.75)"/><path class="cls-5" d="M224.87,122.52s-5.39,2.91-9.06,3l5.68,1Z" transform="translate(-36.3 -63.75)"/><path class="cls-5" d="M76.92,124.94a4.91,4.91,0,0,1-1.27.23l-1.62.14c.7.53,2.46,2,3.39,1.53A3.89,3.89,0,0,0,79,124.13,12.51,12.51,0,0,1,76.92,124.94Z" transform="translate(-36.3 -63.75)"/><path class="cls-6" d="M211.4,105.39c-4.62-3-1.21-.12-5.35-3.72-6.38-5.57-21.11-16.25-29.27-19a13.11,13.11,0,0,1-5,3.9c-6.22-2-14.61-6.19-19-11.06-1,1.49-1.6,1.17-3.88,2.67-.45-.2-8.27-3.53-8.48-4.59-5.89,1.92-11.83,6.1-17,9.49a162.75,162.75,0,0,0-17.6,13.3c-1-2.09-2.09-4.17-3.15-6.26A69.64,69.64,0,0,0,91,96.75c.49-.57.94-1.15,1.43-1.68v0c7.28-8.51,15.39-16.37,15.39-16.37-.57,5.93,1.47,7.69,1.47,7.69,7.65-7.53,23.69-17,35.27-19.23,0,0-.65,3.23,3.93,9.33.2,0,.9-6.88,4.54-9.74,0,0,10.35,15.1,17.64,17.8,0,0,1.23-8.06-.25-12.32,0,0,18.87,10.56,28.2,18.91a86.77,86.77,0,0,1,7.2,7.28v0c.78.82,1.51,1.68,2.21,2.54C209.24,102.4,210.34,103.87,211.4,105.39Z" transform="translate(-36.3 -63.75)"/><path class="cls-5" d="M74,142.87a32.46,32.46,0,0,1-4.73,0c1.34.46,4,2.62,5.43,2.6a5,5,0,0,0,4.74-4.3A15.41,15.41,0,0,1,74,142.87Z" transform="translate(-36.3 -63.75)"/><path class="cls-5" d="M79.64,163.91l2.87.23c-2.58,4.17-3.32,6.71-3.32,10.86l2.49-.23s-.6,9.43,1.48,15a16,16,0,0,1,.78,3.58c.38,1.87-1.39-1.92-2.2-.33-.74,1.43-.44,2.83,0,4.31Q85,208.17,88.21,219a3.66,3.66,0,0,0,3.23,3c2.63.84,5.29,1.59,8,2.27,3.63.92,7.84,1.6,10.84-.65a13.19,13.19,0,0,0,3.39-4.57c.57-1.06,1.14-2.12,1.72-3.18a2.88,2.88,0,0,1,1-1.25,2.83,2.83,0,0,1,1.29-.24l7.5-.2c1.22-1.22.51-3.44-.88-4.46s-3.19-1.22-4.86-1.64a18.39,18.39,0,0,1-11.13-8.16c-.1,1-.21,1.94-.31,2.91a14.71,14.71,0,0,1-7.31-5.6A43.5,43.5,0,0,1,96.31,189a2.53,2.53,0,0,0-1,2.76c-5.2-3-8.23-14.21-8.82-17.66-.24-1.38-1-3.41.21-6,.4-.86,1-1.62,1.3-2.52.69-2,0-4.3,1-6.11a5.59,5.59,0,0,1,2.2-2,29.26,29.26,0,0,1,5.11-2.22c-4.63.22-3.74.24-8.13,1.44C83.19,158,80.51,162.56,79.64,163.91Z" transform="translate(-36.3 -63.75)"/><path class="cls-5" d="M217.36,163.91l-2.87.23c2.58,4.17,3.32,6.71,3.32,10.86l-2.49-.23s.6,9.43-1.48,15a16,16,0,0,0-.78,3.58c-.38,1.87,1.39-1.92,2.2-.33.74,1.43.44,2.83,0,4.31Q212,208.17,208.79,219a3.66,3.66,0,0,1-3.23,3c-2.63.84-5.29,1.59-8,2.27-3.63.92-7.84,1.6-10.84-.65a13.19,13.19,0,0,1-3.39-4.57c-.57-1.06-1.14-2.12-1.72-3.18a2.88,2.88,0,0,0-1-1.25,2.83,2.83,0,0,0-1.29-.24l-7.5-.2c-1.22-1.22-.51-3.44.88-4.46s3.19-1.22,4.86-1.64a18.39,18.39,0,0,0,11.13-8.16c.1,1,.21,1.94.31,2.91a14.71,14.71,0,0,0,7.31-5.6,43.5,43.5,0,0,0,4.38-8.26,2.53,2.53,0,0,1,1,2.76c5.2-3,8.23-14.21,8.82-17.66.24-1.38,1-3.41-.21-6-.4-.86-1-1.62-1.3-2.52-.69-2,0-4.3-1-6.11a5.59,5.59,0,0,0-2.2-2,29.26,29.26,0,0,0-5.11-2.22c4.63.22,3.74.24,8.13,1.44C213.81,158,216.49,162.56,217.36,163.91Z" transform="translate(-36.3 -63.75)"/><path class="cls-5" d="M101.15,146.63a8.89,8.89,0,0,1,3.3-5.38l-2.1.23c.14-1.19,1.87-4.27,4-5.11l-2.26-.57c.55-1,4.69-4,8.61-3.77l-1.63-1.38c21.08-6.61,18.33,14.83,18.33,14.83-7.72,9.1-21.46,3-22.92,2.31C104.79,147,102.5,146.28,101.15,146.63Z" transform="translate(-36.3 -63.75)"/><path class="cls-7" d="M204.56,206.23a19.32,19.32,0,0,1-5,4.81q-3.42,2.52-6.95,4.89c-1.19.79-2.64,1.61-4,1.08a4,4,0,0,1-1.6-1.41,16.35,16.35,0,0,1-1.65-2.71,2.52,2.52,0,0,0-.89-1.2,1.59,1.59,0,0,0-1.94.61,4.37,4.37,0,0,0-.62,2.11c-.34,3-.45,6.29,1.39,8.66,2.25,2.91,6.43,3.27,10.1,3.39,2.28.07,4.72.11,6.66-1.1s3.19-3.68,5.4-4.54c1.08-.42,2.41-.48,3.14-1.38a3.75,3.75,0,0,0,.64-1.6,128.35,128.35,0,0,0,3.11-21.09.82.82,0,0,0-.1-.56.78.78,0,0,0-.56-.21,7.88,7.88,0,0,0-4,.32c-1.75.79-2.09,2.51-1.94,4.2A8.53,8.53,0,0,1,204.56,206.23Z" transform="translate(-36.3 -63.75)"/><path class="cls-7" d="M92.45,206.23a19.32,19.32,0,0,0,5,4.81q3.42,2.52,7,4.89c1.19.79,2.64,1.61,4,1.08a4,4,0,0,0,1.6-1.41,16.35,16.35,0,0,0,1.65-2.71,2.52,2.52,0,0,1,.89-1.2,1.59,1.59,0,0,1,1.94.61,4.37,4.37,0,0,1,.62,2.11c.34,3,.45,6.29-1.39,8.66-2.25,2.91-6.43,3.27-10.1,3.39-2.28.07-4.72.11-6.66-1.1s-3.19-3.68-5.4-4.54c-1.08-.42-2.41-.48-3.14-1.38a3.75,3.75,0,0,1-.64-1.6,128.35,128.35,0,0,1-3.11-21.09.82.82,0,0,1,.1-.56.78.78,0,0,1,.56-.21,7.88,7.88,0,0,1,4,.32c1.75.79,2.09,2.51,1.94,4.2A8.48,8.48,0,0,0,92.45,206.23Z" transform="translate(-36.3 -63.75)"/><path class="cls-5" d="M195.85,146.63a8.89,8.89,0,0,0-3.3-5.38l2.1.23c-.14-1.19-1.87-4.27-4-5.11l2.26-.57c-.55-1-4.69-4-8.61-3.77l1.63-1.38c-21.08-6.61-18.33,14.83-18.33,14.83,7.72,9.1,21.46,3,22.92,2.31C192.21,147,194.5,146.28,195.85,146.63Z" transform="translate(-36.3 -63.75)"/><path class="cls-8" d="M173.18,196.44c0,7.65-.37,14-1.43,19.19-2.5,12.15-8.84,17.76-23.24,17.76s-20.79-5.61-23.28-17.76c-1.06-5.16-1.43-11.54-1.43-19.19,0-11.17,2.13-21.44,5.65-29.46v0c1.72-.49,3.31-1,4.5-1.31,1-.25.57,3,1.56,2.7a29.55,29.55,0,0,0,9-5.73,43.36,43.36,0,0,0,4-3.89s6.22,7.2,13,9.62c.94.33.49-3,1.51-2.7,1.19.33,2.78.82,4.5,1.31v0C171.1,175,173.18,185.27,173.18,196.44Z" transform="translate(-36.3 -63.75)"/><path d="M148.51,235.44c-14.93,0-22.5-5.8-25.29-19.39-1-4.88-1.47-11.11-1.47-19.61,0-10.81,2-21.4,5.65-29.89v-1.12l3.72-1.12c.85-.25,1.62-.48,2.28-.66l.89-.24,1.07.55a2.89,2.89,0,0,1,1.17,1.72,32,32,0,0,0,6.66-4.61,42.27,42.27,0,0,0,3.77-3.69l1.55-1.79,1.55,1.79c.05.06,4.89,5.6,10.4,8.28a3,3,0,0,1,1.16-1.7l.74-.48,1.16.16,2.36.68,3.72,1.08v1.15c3.64,8.39,5.65,19,5.65,29.89,0,8.5-.47,14.73-1.48,19.61C171,229.64,163.41,235.44,148.51,235.44ZM131,168.62a73.72,73.72,0,0,0-5.12,27.82c0,8.21.44,14.17,1.39,18.78,2.38,11.61,8.35,16.13,21.28,16.13s18.86-4.52,21.24-16.13c.95-4.6,1.39-10.56,1.39-18.78,0-10.16-1.81-20-5.12-27.81l-1.31-.38-.58-.18a3,3,0,0,1-1.3,2l-.82.48-1.16-.29c-5.21-1.85-10-6.17-12.34-8.56-.69.69-1.58,1.54-2.63,2.45a31.82,31.82,0,0,1-9.7,6.11l-.9.32-1.11-.5a3,3,0,0,1-1.31-2l-.58.17Z" transform="translate(-36.3 -63.75)"/><polygon points="189.75 101.75 189.71 101.75 189.71 97.66 189.75 101.75"/><path d="M127.92,140.09a8.41,8.41,0,1,1-8.39-8.43A8.41,8.41,0,0,1,127.92,140.09Z" transform="translate(-36.3 -63.75)"/><path d="M185.87,140.09a8.39,8.39,0,1,1-8.39-8.43A8.38,8.38,0,0,1,185.87,140.09Z" transform="translate(-36.3 -63.75)"/><path class="cls-6" d="M98.73,155.23a56.44,56.44,0,0,0-8,4.68,13.06,13.06,0,0,0-2.88,2.87l-.25.39-.07.09,0,.05c0,.05,0,0,.11-.19a1.83,1.83,0,0,0,.14-1,1.93,1.93,0,0,0-.32-.75c-.44-.45-.25-.23-.22-.25l.42.16c.34.12.73.25,1.22.46a4.48,4.48,0,0,1,.9.51,3,3,0,0,1,.69.72,2.38,2.38,0,0,1,.29,1.94,6.79,6.79,0,0,1-.79,1.54l-.7,1L88,169.37a14.1,14.1,0,0,0-2,3.39c0,.06,0,.24-.1-.35a1.17,1.17,0,0,0-.62-.71c-.22-.08-.13,0,0,0l1.16.19a3.76,3.76,0,0,1,.92.28,1.77,1.77,0,0,1,1.07,1.55l0,1.14c-.09,1.54-.16,3.1-.41,4.75A41.67,41.67,0,0,1,86.39,175l-.32-1.2c-.09.26.37.77.37.71s-.11,0-.24.05a10.6,10.6,0,0,1-1.19.08,2.73,2.73,0,0,1-1.13-.22,1.89,1.89,0,0,1-1-1.12,2.31,2.31,0,0,1-.08-.94,12.45,12.45,0,0,1,1.91-5.12c.41-.71.86-1.37,1.27-2l.58-.94c.15-.2.4-.81.31-.54a1.69,1.69,0,0,0,.21,1.38,1.15,1.15,0,0,0,.27.31l-.12-.07-1-.41-.67-.3a3.23,3.23,0,0,1-1.19-.9,2.22,2.22,0,0,1-.45-1,2.12,2.12,0,0,1,.18-1.3,1.34,1.34,0,0,1,.17-.31l0-.07.11-.14.45-.56a13.13,13.13,0,0,1,4.26-3.19A19.36,19.36,0,0,1,98.73,155.23Z" transform="translate(-36.3 -63.75)"/><path class="cls-6" d="M198.27,155.23a19.77,19.77,0,0,1,9.6,2,13.27,13.27,0,0,1,4.26,3.19l.45.56.11.14.05.07a1.34,1.34,0,0,1,.17.31,2.21,2.21,0,0,1,.18,1.3,2.33,2.33,0,0,1-.45,1,3.11,3.11,0,0,1-1.19.9l-.67.3-1,.41c-.1,0-.22.13-.12.07a1.15,1.15,0,0,0,.27-.31,1.65,1.65,0,0,0,.21-1.38c-.1-.27.16.33.31.54l.58.94c.41.65.86,1.31,1.27,2a12.62,12.62,0,0,1,1.91,5.12,2.31,2.31,0,0,1-.08.94,1.89,1.89,0,0,1-1,1.12,2.73,2.73,0,0,1-1.13.22,8.64,8.64,0,0,1-1.19-.08c-.12,0-.29,0-.24-.05s.46-.45.37-.71l-.32,1.2a42.39,42.39,0,0,1-1.59,4.61,47.39,47.39,0,0,1-.41-4.75l0-1.14a1.77,1.77,0,0,1,1.07-1.55,4.93,4.93,0,0,1,.92-.28l1.16-.19c.14,0,.23-.1,0,0a1.23,1.23,0,0,0-.62.71c-.12.59,0,.41-.1.35a14.1,14.1,0,0,0-2-3.39l-1.34-1.9-.7-1a6.79,6.79,0,0,1-.79-1.54,2.38,2.38,0,0,1,.29-1.94,3.44,3.44,0,0,1,.69-.72,4.48,4.48,0,0,1,.9-.51c.48-.21.87-.34,1.22-.46l.42-.16s.22-.2-.22.25a1.79,1.79,0,0,0-.32.75,1.82,1.82,0,0,0,.14,1c.11.21.15.24.11.19l0-.05-.07-.09-.25-.39a13.28,13.28,0,0,0-2.88-2.87A58.59,58.59,0,0,0,198.27,155.23Z" transform="translate(-36.3 -63.75)"/><polygon points="48.93 157.37 48.73 156.7 52.75 155.89 52.89 156.35 48.93 157.37"/><path d="M81.15,193.43l0-.76c0-.42,0-.74,0-.94l4.09-.2c0,.36,0,.59,0,.9l0,.8Z" transform="translate(-36.3 -63.75)"/><path d="M179.39,215.28a12.88,12.88,0,0,1-.1-2h4.09a8.75,8.75,0,0,0,.06,1.37Z" transform="translate(-36.3 -63.75)"/><path d="M211.76,221.14l-3.9-1.25a12.86,12.86,0,0,0,.4-1.31l4,1A13.66,13.66,0,0,1,211.76,221.14Z" transform="translate(-36.3 -63.75)"/><path class="cls-9" d="M224,209.76" transform="translate(-36.3 -63.75)"/><path class="cls-9" d="M73,209.76" transform="translate(-36.3 -63.75)"/><path class="cls-10" d="M106.52,227.62a21.38,21.38,0,0,1-4.34.37H84.38a11,11,0,0,1,2.82-7.41,7.74,7.74,0,0,1,.61-.65,11.11,11.11,0,0,1,18.58,6.26A7.39,7.39,0,0,1,106.52,227.62Z" transform="translate(-36.3 -63.75)"/><path class="cls-10" d="M212.63,228h-11l0,0,.37-.41c-.2,0-.45,0-.7.08l.33.33,0,0h-6.75a21.44,21.44,0,0,1-4.34-.37,7.72,7.72,0,0,1,.2-1.68,11,11,0,0,1,10.84-9,10.74,10.74,0,0,1,5.57,1.51.15.15,0,0,0,.12,0,10.71,10.71,0,0,1,2.58,2.09v0A11,11,0,0,1,212.63,228Z" transform="translate(-36.3 -63.75)"/><circle class="cls-11" cx="85.83" cy="74.2" r="2.61"/><circle class="cls-11" cx="143.79" cy="74.2" r="2.61"/><path class="cls-12" d="M76.16,84.63s-11,7.25-11,17.53C65.12,102.16,59.5,84.63,76.16,84.63Z" transform="translate(-36.3 -63.75)"/><path class="cls-12" d="M222.88,84.63s11,7.25,11,17.53C233.92,102.16,239.54,84.63,222.88,84.63Z" transform="translate(-36.3 -63.75)"/><path class="cls-12" d="M173.18,196.44s-11.12-23.45-24.7-9.88c-13.57-13.57-24.7,9.88-24.7,9.88-.73,21.58,5.37,30.91,12.92,34.67,0,2,2.63,3.54,13.17,2.26C172,230.71,173.44,215.49,173.18,196.44Z" transform="translate(-36.3 -63.75)"/><path class="cls-3" d="M218.89,109.44a51.42,51.42,0,0,1-7.49-4" transform="translate(-36.3 -63.75)"/><path class="cls-3" d="M79.63,106.74A67,67,0,0,1,91,96.8l0,0" transform="translate(-36.3 -63.75)"/><path class="cls-13" d="M196.39,222.31l5.15,5.15,5.19-5.19S202.21,216.49,196.39,222.31Z" transform="translate(-36.3 -63.75)"/><path class="cls-13" d="M195.24,223.46l5.13,5.18-7.75.06A7.54,7.54,0,0,1,195.24,223.46Z" transform="translate(-36.3 -63.75)"/><path class="cls-13" d="M207.92,223.53l-5.13,5.18,7.75-.07A7.58,7.58,0,0,0,207.92,223.53Z" transform="translate(-36.3 -63.75)"/><path class="cls-13" d="M100.61,222.31l-5.15,5.15-5.19-5.19S94.79,216.49,100.61,222.31Z" transform="translate(-36.3 -63.75)"/><path class="cls-13" d="M101.76,223.46l-5.13,5.18,7.75.06A7.54,7.54,0,0,0,101.76,223.46Z" transform="translate(-36.3 -63.75)"/><path class="cls-13" d="M89.08,223.53l5.13,5.18-7.75-.07A7.58,7.58,0,0,1,89.08,223.53Z" transform="translate(-36.3 -63.75)"/><path class="cls-14" d="M205.07,221.87c-.27.27-1.47-.84-3.51-.84s-3.23,1.12-3.51.86c0,0,3.08-4,7,0" transform="translate(-36.3 -63.75)"/><path class="cls-14" d="M91.93,221.87c.27.27,1.47-.84,3.51-.84s3.23,1.12,3.51.86c0,0-3.08-4-7,0" transform="translate(-36.3 -63.75)"/><path d="M263,125.48a2.92,2.92,0,0,0-1.11-2.29c-2.13-1.75-8.36-1.23-13.5-.41,2.71-6.67,4.38-14.09,4.38-19.77a24.7,24.7,0,0,0-47.84-8.67c-1.53-1.6-3.14-3.17-4.9-4.77-9.39-8.4-27.78-18.73-28.56-19.17l-4.69-2.62,1.75,5.08c.74,2.13.68,5.71.48,8.42-5.28-3.61-11.85-12.24-14.24-15.73l-1.24-1.8-1.72,1.35a13.5,13.5,0,0,0-4,6.3,8.7,8.7,0,0,1-1.16-3.88l.61-3-3,.58C133.09,67.26,118.34,75.65,110,82.94a14.25,14.25,0,0,1-.11-4.09l.54-5.54-4,3.88c-.07.07-6.78,6.59-13.43,14.12A24.71,24.71,0,0,0,46.49,103c0,5.68,1.67,13.1,4.38,19.77-4.83-.76-11.29-1.36-13.46.41a3,3,0,0,0-1.11,2.29c0,4,18.71,33.07,32.83,39.42a60.31,60.31,0,0,0,12,27.57l.06,1c.39,6.54,1.4,18.56,3.78,26.64a13.17,13.17,0,0,0-2.6,7.86v2h19.85a23.19,23.19,0,0,0,4.75-.41l1.07-.22,0,0,.25-.08.27-.06v0l.31-.1c5.39-1.76,8.47-6.15,9.17-13.2,1.72.5,3.54,1,5.48,1.4,3,12.64,10.54,18.08,25,18.08s21.94-5.44,24.94-18.09c2.11-.48,4.09-1,6-1.53.48,6.87,3.18,11.32,8,13.21h0l.06,0,.68.27h0a19.94,19.94,0,0,0,6.18.84c1,0,2.08-.05,3.1-.11h17.17v-2a13.09,13.09,0,0,0-2.6-7.84l.15-.53c2-7.16,3-17,3.38-22.21h0c.14-2,.23-3.63.28-4.64v-.3a60.63,60.63,0,0,0,6.79-10.93,61.46,61.46,0,0,0,5.14-16.35C242.05,161.39,263,129.77,263,125.48Zm-222.33.72c2.13-.34,7.65.22,12.34,1.1a35.72,35.72,0,0,0,7.05,10l2.81-3a32.64,32.64,0,0,1-6.63-9.7l-.5-1C52.62,117,50.59,108.8,50.59,103a20.63,20.63,0,0,1,39.5-8.33l-.57.67-.68.81-.71.85-.65.79-.66.83-.59.74-.64.84-.51.67c-.22.29-.42.58-.63.86s-.29.39-.42.58l-.63.9c-.11.15-.22.31-.32.47-.23.34-.45.68-.66,1l-.19.29q-.41.63-.75,1.23l-6,2.71,0,1.27a7.47,7.47,0,0,0,2.63,5.88,82.49,82.49,0,0,1-7.18,7.46l-1,.89.4,1.24a5.91,5.91,0,0,0,3.48,3.9c-.72,4.57-1.93,9.38-6.46,12.49l-3.17,2.18,5.84,2.3a11.57,11.57,0,0,0-1.92,6.05c0,1.09,0,2.2.08,3.31,0,.33,0,.67,0,1,0,.8.1,1.61.17,2.41,0,.22,0,.44,0,.65C57.16,152.94,42.76,131.38,40.63,126.2Zm61.55,99.74H86.66a9.11,9.11,0,0,1,2.12-4.05,5.46,5.46,0,0,1,.44-.47A9.12,9.12,0,0,1,95.47,219a7.14,7.14,0,0,1,.8,0l.27,0,.51.07.32.07.43.1.35.11.38.12.36.14c.11.05.23.09.34.15l.37.18.3.16.37.22.27.17.36.26.23.18.36.31.2.18c.12.12.24.23.35.36l.16.18c.12.13.23.26.34.4l.13.17.32.45c0,.05.07.11.11.17s.2.32.29.49l.08.16c.09.17.18.35.26.53a1.11,1.11,0,0,0,.07.16c.08.18.15.37.22.56l.06.18c.06.19.12.38.17.57a.08.08,0,0,0,0,0C103.62,225.92,102.94,225.94,102.18,225.94Zm68.94-26.52a86.21,86.21,0,0,1-1.37,15.8c-2.38,11.61-8.33,16.13-21.24,16.13s-18.9-4.52-21.28-16.13c-1-4.61-1.39-10.57-1.39-18.78A73.72,73.72,0,0,1,131,168.62l1.32-.38.58-.17a3,3,0,0,0,1.31,2l1.11.5.9-.32a31.82,31.82,0,0,0,9.7-6.11l.58-.51V218h4.09V163.64a32.68,32.68,0,0,0,10.3,6.61l1.16.29.82-.48a2.94,2.94,0,0,0,1.3-2l.58.18,1.31.38c3.3,7.82,5.12,17.65,5.12,27.81C171.14,197.47,171.13,198.46,171.12,199.42Zm23.71,26.52c-.74,0-1.41,0-2-.07,0-.07,0-.15.05-.22a2.76,2.76,0,0,1,.08-.27l.15-.47a2.33,2.33,0,0,1,.11-.28l.18-.42a2.59,2.59,0,0,1,.14-.29c.06-.13.13-.26.2-.38l.17-.3c.07-.12.15-.23.22-.34a3.06,3.06,0,0,1,.21-.29l.24-.31.24-.29.25-.27.27-.28.27-.24.3-.26.28-.21.32-.24.29-.19.35-.21.31-.16c.12-.06.24-.13.36-.18l.33-.14.37-.15.36-.12.36-.11.41-.09.34-.07.49-.07.28,0c.26,0,.53,0,.79,0a8.65,8.65,0,0,1,4.38,1.14l.73.41a9,9,0,0,1,1.18.94l.46.51a9,9,0,0,1,2.07,4H194.83ZM219,179.76a56.71,56.71,0,0,1-6.82,10.84c-.5.6-1,1.21-1.53,1.77l-.84.89h0a57.15,57.15,0,0,1-6.51,6.06l2.53,3.21a61.57,61.57,0,0,0,5.6-5l.06.13a132.82,132.82,0,0,1-2.78,19.25,3.77,3.77,0,0,1-.49-.22h0l-.42-.24h-.06a12.71,12.71,0,0,0-6.18-1.55c-.38,0-.76,0-1.14,0l-.4.05c-.24,0-.48.05-.71.1l-.49.1-.59.13-.54.16-.5.16-.59.23-.41.17c-.21.1-.42.2-.62.31l-.33.17-.66.39-.24.15c-.23.15-.46.32-.68.49l-.16.12c-.24.19-.47.38-.7.59l-.08.07c-.24.22-.48.46-.71.7v0a13,13,0,0,0-2.75,4.52v0c-.11.32-.21.65-.3,1,0,0,0,0,0,.06l-.68.32c-2-1-4.34-3.2-4.74-9.48.19-.38.35-.74.49-1.1,2.44-.84,4.75-1.73,6.87-2.69l-1.69-3.73c-1.54.69-3.19,1.36-4.93,2l-2.55.89c-2.29.8-4.73,1.51-7.39,2.16,0-.18.05-.38.07-.57s0-.37.07-.55c.06-.49.12-1,.18-1.52l.06-.55c.14-1.39.25-2.88.34-4.46,0-.24,0-.5,0-.74,0-.56,0-1.14.07-1.73l0-.89c0-.6,0-1.21,0-1.84,0-.28,0-.56,0-.85,0-.91,0-1.85,0-2.82a79.68,79.68,0,0,0-4.32-26.52,18.34,18.34,0,0,0,3.6.43l.73,0,1.28-.16.58-.85a2.24,2.24,0,0,0,.39-1.31,25.07,25.07,0,0,0,6.73-2.8l-2.09-3.52a20.72,20.72,0,0,1-7.11,2.65l-1.15.32-.47.81a2.32,2.32,0,0,0-.26.67,31.46,31.46,0,0,1-3.55-.75v0l-3.72-1.08c-.86-.26-1.63-.48-2.36-.68l-1.16-.16-.74.48a3,3,0,0,0-1.16,1.7c-5.51-2.68-10.34-8.22-10.4-8.28l-1.55-1.79L147,157.36a42.32,42.32,0,0,1-3.77,3.69,31.62,31.62,0,0,1-6.66,4.61,2.94,2.94,0,0,0-1.17-1.72l-1.07-.55-.89.24-2.28.66-3.16,1a31.7,31.7,0,0,1-4.09.88,2.27,2.27,0,0,0-.26-.66l-.73-1-.94-.16a20.47,20.47,0,0,1-7.08-2.65l-2.09,3.52a25,25,0,0,0,6.75,2.8,2.26,2.26,0,0,0,.39,1.31l.78.92,1,.08q.38,0,.78,0a18.71,18.71,0,0,0,3.63-.43,80.18,80.18,0,0,0-4.33,26.51c0,1,0,1.91,0,2.83,0,.27,0,.53,0,.8,0,.65,0,1.28,0,1.9l0,.83c0,.63,0,1.24.08,1.83l0,.64c.09,1.6.2,3.1.34,4.51l.06.52c.05.51.11,1,.18,1.51,0,.21,0,.42.08.63s0,.36.07.53c-2.11-.51-4.05-1.07-5.89-1.69l-4.46-1.52c-1.56-.59-3.06-1.2-4.46-1.84l-1.69,3.72a78.34,78.34,0,0,0,7.68,3c0,.12.1.25.14.37l0,.07c-.5,6.67-3.26,8.92-5.63,9.9l-.19-.1,0-.11c0-.15-.09-.3-.13-.45s-.13-.44-.21-.66-.11-.29-.17-.43-.17-.42-.26-.63-.13-.28-.2-.41-.2-.4-.31-.6-.15-.26-.23-.39-.23-.38-.36-.56l-.26-.37c-.13-.18-.26-.36-.4-.53s-.19-.23-.29-.34-.29-.33-.45-.49l-.31-.32-.49-.45-.34-.29-.52-.41-.36-.26c-.18-.13-.37-.24-.56-.36l-.38-.23c-.19-.11-.39-.21-.59-.31l-.4-.2-.62-.26-.42-.17c-.21-.08-.43-.14-.65-.21l-.42-.13-.69-.16c-.14,0-.28-.07-.42-.09l-.77-.1-.37,0c-.38,0-.77-.05-1.16-.05s-.76,0-1.14.05l-.33,0c-.28,0-.56.07-.83.12l-.32.06c-.36.07-.71.16-1.06.26h0c-.38.11-.75.24-1.11.38l-.17.07c-.31.13-.62.27-.92.42l-.18.09a11.59,11.59,0,0,0-1.08.62,129.19,129.19,0,0,1-2.78-19.49,61,61,0,0,0,5.65,5.07l2.53-3.21a55.55,55.55,0,0,1-7.25-6.84l-1.76-2A56.29,56.29,0,0,1,73,163.15a76.45,76.45,0,0,1-.76-10.6,4.89,4.89,0,0,1,0-.54,9.61,9.61,0,0,1,2.51-5L77,144.84l-4.54-1.79c4.21-4.42,5-10.14,5.72-14.89l.3-2.48-2.51.15a1.44,1.44,0,0,1-1.12-.41c2.54-2.43,7.13-7,7.93-9.25l.61-1.73-1.64-.81a4.42,4.42,0,0,1-2-2.16l4.63-2.1.33-.58A81.29,81.29,0,0,1,94,96.41l.5-.58v0h0C98.6,91,103,86.42,105.88,83.47c.51,2.93,1.73,4.15,2.06,4.43l1.43,1.23,1.34-1.32c6.74-6.63,21-15.3,32-18.18a21.71,21.71,0,0,0,4.13,8l.62.82h1c1.69,0,2-1.56,2.21-2.4a20.18,20.18,0,0,1,2.16-6.1c3.27,4.46,10.89,14.14,17.1,16.44l2.36.87.38-2.48a46.68,46.68,0,0,0,.46-8.69c5.93,3.5,17.53,10.61,24.1,16.48a85.63,85.63,0,0,1,6.53,6.54h0v.08l.56.59c.74.78,1.44,1.6,2.11,2.42a84,84,0,0,1,9,13.42l.62,1.16,4.34-.28a11.25,11.25,0,0,1-1.72,3L215.63,123l8.39-.21a10.62,10.62,0,0,1-2.53,2.58l-1.28.88.49,1.46c.28.85.62,2,1,3.34,1.63,5.58,4.17,14.29,8.14,20a4.22,4.22,0,0,1-2-.31l-3-1.69v3.48a74.83,74.83,0,0,1-.76,10.6v.05A57.52,57.52,0,0,1,219,179.76Zm9.44-19c0-.15,0-.29,0-.43.06-.61.11-1.23.16-1.84l.06-.79c0-.83.1-1.67.12-2.5a19.38,19.38,0,0,0,5.51-.51l3.75-.89-2.83-2.61c-4.68-4.3-7.88-15.29-9.6-21.19-.22-.77-.43-1.48-.62-2.11,1.52-1.33,3.84-3.89,3.84-7.12v-2.1l-4.94.12a12.4,12.4,0,0,0,1.09-4.3l.13-2.3-6.73.43a88.22,88.22,0,0,0-8.79-12.91c-.5-.62-1-1.24-1.57-1.85A20.62,20.62,0,0,1,248.64,103c0,6.06-2.23,14.73-5.56,21.57h0a33.4,33.4,0,0,1-6.64,9.72l2.81,3a36.16,36.16,0,0,0,7.05-10c5.11-1,10.22-1.4,12.28-1.11C256.09,131.9,240,156.08,228.45,160.71Z" transform="translate(-36.3 -63.75)"/></svg>